<svg width="285" height="239" fill="none" xmlns="http://www.w3.org/2000/svg"><path opacity=".25" d="M45.989 120.883c26.833 29.757 49.53 6.893 75.573-5.563 45.362-21.694 97.353 32.093 120.687 3.331 17.282-21.301 2.016-76.18-34.423-101.618-31.732-22.153-67.265-21.91-109.154-3.837C54.06 32.447 17.112 88.86 45.99 120.883z" fill="url(#paint0_linear_201_2245)"/><path d="M233.067 140.058c-1.95 16.552 2.913 38.44 5.719 46.212l-1.766 3.405c-2.765-10.204-7.935-34.465-5.749-49.871 2.81-19.802 12.111-35.86 17.278-44.297l.585 1.045c-4.456 6.87-13.907 25.19-16.067 43.506z" fill="#F9759C"/><path d="M245.627 153.235c-9.75 9.846-8.923 25.874-7.291 32.658 4.428-7.768 10.031-18.664 21.681-25.972 13.333-8.365 20.588-18.33 24.984-27.265-4.24 6.475-27.186 8.271-39.374 20.579z" fill="#7795FF" fill-opacity=".7"/><path d="M247.716 140.083c-9.75 9.845-10.598 33.251-8.965 40.035 4.427-7.767 11.528-21.005 23.256-30.558 11.784-9.599 19.09-22.832 19.514-32.181-4.912 8.114-21.617 10.396-33.805 22.704z" fill="#7795FF" fill-opacity=".7"/><path d="M239.538 142.714c-8.321 15.672-4.314 35.624-1.27 43.64 3.134-11.276 11.391-28.588 19.708-39.166 10.35-13.165 13.058-31.129 15.93-43.869-3.189 9.583-23.966 19.805-34.368 39.395z" fill="#5970C4"/><path fill-rule="evenodd" clip-rule="evenodd" d="M279.25 46.686c-4.128 5.114-11.829 16.295-14.843 22.136 3.052-4.846 10.431-15.965 15.528-21.673l-.044-.104c2.451 1.79 3.377 7.84.035 20.23-2.947-.518-6.073-.71-8.099-.244 1.762.073 4.845.385 7.867 1.088a133.621 133.621 0 01-2.583 8.162 41.194 41.194 0 01-1.101 2.811c-2.389-1.385-4.93-2.51-6.796-2.785 1.51.665 4.025 1.945 6.455 3.547a40.774 40.774 0 01-6.522 9.967c-2.269-1.796-4.771-3.369-6.663-3.92 1.445.887 3.851 2.559 6.101 4.543-8.298 9.025-19.25 13.241-25.198 14.334-.001-.791-.015-1.591-.031-2.406-.092-4.939-.194-10.423 2.867-17.584.342-.8.707-1.606 1.092-2.412 1.649 1.155 3.144 2.892 3.838 3.848-.462-1.442-2.042-3.257-3.534-4.475 2.996-6.114 7.123-12.306 11.375-17.755 1.412 1.122 2.645 2.57 3.256 3.412-.394-1.23-1.601-2.73-2.873-3.9.758-.962 1.519-1.9 2.277-2.809 1.551 1.15 2.934 2.764 3.592 3.672-.424-1.326-1.795-2.968-3.173-4.17 6.28-7.447 12.306-12.848 14.848-13.57.832-.237 1.625-.23 2.329.057z" fill="#EE7298"/><path d="M226.337 33.1v110.118h-1.772l-54.948-35.451L169.174.752h2.437L226.337 33.1z" fill="#213375"/><path d="M167.844 108.654L169.173.752l55.391 33.235v109.231l-56.72-34.564z" fill="#3E5193"/><path d="M214.816 40.634V150.75h-1.773l-54.948-35.45-.443-107.016h2.437l54.727 32.349z" fill="#4F70E4"/><path d="M156.322 116.187l1.33-107.902 55.391 33.235v109.23l-56.721-34.564z" fill="#6785EF"/><path d="M203.294 48.61v110.117h-1.772l-54.948-35.45-.443-107.016h2.437l54.726 32.35z" fill="#B2C3FF"/><path d="M144.801 124.164l1.329-107.903 55.391 33.235v109.231l-56.72-34.563z" fill="#E8EDFF"/><path d="M149.232 44.4V26.232l48.966 28.582v19.054L149.232 44.4z" fill="#fff" fill-opacity=".3"/><path d="M156.016 45.215c1.773-.05 3.14-2.586 3.054-5.664-.085-3.079-1.592-5.535-3.364-5.485-1.773.049-3.14 2.585-3.055 5.664.086 3.078 1.593 5.534 3.365 5.485z" fill="#fff"/><path d="M161.641 39.526v-1.55l15.73 9.526v1.551l-15.73-9.527zm0 7.754v-1.55l8.862 5.539v1.55l-8.862-5.538zm0-3.987v-1.551l20.605 12.629v1.55l-20.605-12.628z" fill="#B2C3FF"/><path d="M190.355 59.498l-.355 1.9 1.95 3.608 3.368-5.508-.178-2.469-3.19 5.697-1.595-3.228z" fill="#6785EF"/><path d="M149.232 66.335V48.167l48.966 28.581v19.055l-48.966-29.468z" fill="#fff" fill-opacity=".3"/><path d="M156.016 67.15c1.773-.05 3.14-2.586 3.054-5.664-.085-3.08-1.592-5.535-3.364-5.485-1.773.049-3.14 2.585-3.055 5.663.086 3.08 1.593 5.535 3.365 5.486z" fill="#fff"/><path d="M161.641 61.46v-1.55l15.73 9.527v1.55l-15.73-9.526zm0 7.755v-1.55l8.862 5.539v1.55l-8.862-5.539zm0-3.988v-1.55l20.605 12.628v1.551l-20.605-12.629z" fill="#B2C3FF"/><path d="M190.355 81.433L190 83.332l1.95 3.608 3.368-5.507-.178-2.469-3.19 5.697-1.595-3.228z" fill="#6785EF"/><path d="M149.232 88.934V70.766l48.966 28.582v19.054l-48.966-29.468z" fill="#fff" fill-opacity=".3"/><path d="M156.016 89.75c1.773-.05 3.14-2.586 3.054-5.665-.085-3.078-1.592-5.534-3.364-5.485-1.773.05-3.14 2.585-3.055 5.664.086 3.079 1.593 5.535 3.365 5.485z" fill="#fff"/><path d="M161.641 84.06v-1.55l15.73 9.527v1.55l-15.73-9.527zm0 7.755v-1.551l8.862 5.539v1.551l-8.862-5.54zm0-3.988v-1.551l20.605 12.629v1.551l-20.605-12.63z" fill="#B2C3FF"/><path d="M190.355 104.032l-.355 1.9 1.95 3.608 3.368-5.508-.178-2.469-3.19 5.698-1.595-3.229z" fill="#6785EF"/><path d="M149.232 111.534V93.366l48.966 28.582v19.054l-48.966-29.468z" fill="#fff" fill-opacity=".3"/><path d="M156.016 112.349c1.773-.05 3.14-2.586 3.054-5.664-.085-3.079-1.592-5.535-3.364-5.486-1.773.05-3.14 2.586-3.055 5.664.086 3.079 1.593 5.535 3.365 5.486z" fill="#C4C4C4"/><path d="M161.641 106.66v-1.551l15.73 9.527v1.551l-15.73-9.527zm0 7.754v-1.551l8.862 5.54v1.551l-8.862-5.54zm0-3.988v-1.551l20.605 12.629v1.551l-20.605-12.629z" fill="#B2C3FF"/><path d="M190.355 126.632l-.355 1.899 1.95 3.609 3.368-5.508-.178-2.469-3.19 5.698-1.595-3.229z" fill="#C4C4C4"/><path d="M196.758 145.753c5.464-.152 9.691-7.58 9.44-16.59-.251-9.01-4.884-16.19-10.349-16.038-5.464.152-9.691 7.579-9.44 16.589.251 9.01 4.884 16.191 10.349 16.039z" fill="#2135BC"/><path d="M195.043 145.753c5.465-.152 9.691-7.58 9.44-16.59-.251-9.01-4.884-16.19-10.348-16.038-5.465.152-9.691 7.579-9.441 16.589.251 9.01 4.885 16.191 10.349 16.039z" fill="#1773FC"/><path d="M193.199 136.004v-13.737l1.551.886v13.737l-1.551-.886z" fill="#fff"/><path d="M189.654 128.027v-1.772l9.307 5.761v1.55l-9.307-5.539z" fill="#fff"/><path opacity=".25" d="M78.151 200.767c23.149 0 41.915-7.627 41.915-17.036 0-9.409-18.766-17.036-41.915-17.036s-41.915 7.627-41.915 17.036c0 9.409 18.766 17.036 41.915 17.036z" fill="url(#paint1_linear_201_2245)"/><path d="M57.063 134.577c0-1.254.59-3.25 1.33-5.318v-2.658h2.658c0 .885-.266 3.013.443 3.545.71.531 1.33 5.982 1.33 7.09 0 1.107-1.33-.443-1.33-.443-.177 2.835-1.551 2.658-2.659 2.658-1.55 0-1.773-3.545-1.773-4.874zm71.661-76.817l-3.419 2.935 2.442 3.424 2.198-2.69c.651-.571 2.149-1.713 2.931-1.713.977 0 3.663-3.424 4.884-5.381 1.221-1.957-.733-6.36-1.221-6.604-.488-.245-5.373 5.87-5.617 6.604-.195.587-1.547 2.528-2.198 3.425z" fill="#FCD8E3"/><path d="M69.47 152.745l-5.096 20.384c-.296.517-.709 1.861 0 3.102.71 1.241 3.692.517 5.096 0l9.084-23.486 5.76-18.168 5.54 12.186-2.66 25.48h4.432l8.641-25.48-7.533-28.582c-1.846.443-7.001 1.551-8.42 2.437-1.417.886-7.975.37-11.078 0l-3.766 32.127z" fill="#1773FC"/><path d="M86.309 176.895l.886-4.874c2.304.709 4.21-.295 4.652-.886.887 2.127 5.687 4.283 8.42 5.096l-.443 2.437c-1.403.148-3.855.354-5.983 0-2.127-.355-6.055-1.329-7.532-1.773z" fill="#96888C"/><path d="M57.726 110.648l-.443 17.947h5.096l3.988-15.732 6.647-11.521 1.33 7.09c0 1.596-.886 9.084-1.33 12.629 1.108.222 4.343.754 8.42 1.108 4.077.355 10.413-2.806 13.072-4.431 0-1.772-1.108-11.965 0-13.516 1.108-1.55 1.108-9.527 1.551-13.072.354-2.836 11.521-7.68 14.401-9.527l19.055-17.504c-.177-1.24-2.733-3.766-3.988-4.874l-2.659 1.994-18.168 11.743-14.623 6.647c-.739 2.068-2.437 5.362-5.096 5.539-2.659.177-5.392-1.551-6.204-3.102L66.367 89.82l-8.64 20.827z" fill="#384FAB"/><path d="M81.656 76.305c0 1.064-.295 4.062-.664 4.875 1.108 1.034 3.722 3.013 5.317 2.658 1.595-.354 2.29-3.545 2.437-5.095-.531-1.064-.221-2.807 0-3.545.178-1.064 1.994-2.66 2.88-3.324.444-1.33-1.993-7.09-2.215-7.755-.222-.665-.443-4.431-5.096-5.318-4.653-.885-7.311 3.103-7.977 4.875-.664 1.772 0 6.869 2.881 9.528 2.305 2.127 2.438 2.584 2.438 3.101z" fill="#FCD8E3"/><path d="M78.332 83.174l1.773-2.659 5.54 1.55 3.1-3.766 1.552 2.216-1.551 4.431-1.108-1.028c-.148.12-.576.452-1.108.806-.532.355-1.356.444-1.703.444l-.291 1.108-6.204-3.102z" fill="#A4B6F5"/><path d="M74.343 66.113c.532 2.836 4.358 6.795 6.204 8.42-.886-1.595-1.108-5.392-1.108-7.09-.354-1.95.887-4.357 1.552-5.318 1.24-1.063 4.8-1.033 6.425-.886.886 0 1.55-1.181 1.772-1.773.887-2.88-2.659-3.988-5.096-5.095-2.437-1.108-6.868 3.545-8.198 4.43-1.33.887-2.216 3.768-1.55 7.312z" fill="#3C56C6"/><path d="M64.948 191.656c-2.82-.345-3.549-5.704-2.758-8.505.79-2.802 1.251-5.156 1.836-7.68.2.2.95.644 2.36.817 1.41.172 2.393-.058 2.708-.195-.287 2.336.467 3.482.715 6.938.247 3.455-1.335 9.058-4.86 8.625z" fill="#96888C"/><path opacity=".25" d="M146.298 238.085c23.149 0 41.915-7.627 41.915-17.036 0-9.409-18.766-17.037-41.915-17.037s-41.915 7.628-41.915 17.037c0 9.409 18.766 17.036 41.915 17.036z" fill="url(#paint2_linear_201_2245)"/><path d="M148.171 180.5c-1.081-3.393-2.569-12.147-2.987-17.681l13.303-.992v27.888l-4.089 27.133c-.857.805-1.706.767-2.488.333-.552-3.072-3.091-13.03-3.411-16.136-.319-3.107 1.705-9.198 2.757-11.856.031-.363-2.004-5.296-3.085-8.689z" fill="#FCD8E3"/><path d="M138.194 171.435c-.616-3.186-.764-11.717-.443-16.689h11.25l-3.515 23.83-7.641 24.734c-.951.57-1.982.271-2.695-.245-.137-2.812-.112-11.644-.015-14.449.096-2.805 2.897-7.862 4.285-10.04.08-.317-.61-3.955-1.226-7.141z" fill="#FCD8E3"/><path d="M154.663 214.723c-1.126.668-2.761-.073-3.438-.528-.595 3.178-1.564 9.778-.69 10.752 1.093 1.219 5.002.768 7.868.857 2.292.072 4.232-.215 4.633-.737.126-.821-.19-1.547-.363-1.807-.678.246-1.869-.59-3.38-1.172-2.703-1.041-4.18-5.428-4.63-7.365zm-16.194-13.128c-1.498.892-2.763.372-3.209 0-.356 2.97-1.016 9.189-.802 10.302.267 1.392.802 1.95 2.941 1.95s5.348-1.671 5.348-2.507c0-.668-.535-1.763-.802-2.227-1.07.446-1.872-.557-2.139-1.113-.642-.446-1.159-4.455-1.337-6.405z" fill="#E1A7B9"/><path d="M137.112 149.929c0-4.509 2.205-9.095 3.675-10.565l1.471-1.225c5.145.164 16.748-4.706 14.898 2.94-.64 2.647-.327 6.14 0 6.957 1.309 9.535 2.391 16.766 5.636 25.419-.98 1.372-6.145 3.653-10.546 4.327-10.738 1.642-16.495-3.123-18.888-5.104l-.042-.034s1.033-4.25 1.623-7.031c1.711-8.069 2.173-10.049 2.173-15.684z" fill="#3C56C6"/><path d="M131.833 140.858v-1.984h2.682v2.267c0 .283.214 1.247 1.073 2.833.858 1.587-.358 4.439-.805 5.667-.429 1.133-1.609.094-2.146-.567 0-.85-1.34-3.4-1.609-4.533-.214-.907.447-2.833.805-3.683zm54.808-11.688c-1.09.219-3.908 2.273-5.18 3.274l.818 3c1.091-.273 3.708-.818 5.453-.818s2.545-.909 2.726-1.364c.455-1.364 1.2-4.255.545-4.91-.817-.818-2.998.546-4.362.818zm-36.592-21.402c-1.417 1.949-2.141 1.92-2.658 1.772v2.88c0 .444 1.772 2.216 4.431 3.767 2.127 1.241 5.613-1.108 7.09-2.437-1.595-.709-3.323-3.102-1.994-5.982 0 0 1.329-.222 1.994-1.552.665-1.329 2.039-3.411 3.102-7.311 1.33-4.874-2.88-8.42-6.425-9.084-3.546-.665-5.893 1.734-6.869 5.096-.747 2.577-.465 6.045 1.329 8.198 1.109 1.329 1.418 2.703 0 4.653z" fill="#FCD8E3"/><path d="M141.08 132.655c.861 3.445-1.715 8.878-1.715 8.878 5.391 6.126 15.681 5.891 16.661 4.421.98-1.47 1.131-4.702 1.866-9.17 0 0 2.573-7.465 1.226-10.16 1.96 3.92 7.397 11.515 10.582 13.475.872.537 13.721-4.655 13.721-4.655.196-1.764-.817-2.45-1.47-3.675l-12.1 1.47s-2.529-4.18-4.608-12.496c-1.225-4.9-5.424-2.994-6.569-7.84-.571 1.388-4.655 3.038-7.595 1.47-2.94-1.568-2.052-2.808-1.807-4.196 0 0-.27 1.121-3.515 1.352-1.913.136-3.446-.339-5.679 1.082-2.695 1.715-6.45 8.039-7.807 15.144-.749 3.92-.35 13.231-.35 13.231s3.185 1.96 3.185-1.225c.49-1.471 1.33-8.576 1.33-8.576s1.61-4.9 4.306-9.555c0 3.92-.642 7.105.338 11.025z" fill="#FFBDD1"/><path d="M146.895 96.184c.732-4.758 5.029-7.779 7.086-8.693.991-.458 3.795-.732 7.086 1.83 3.292 2.562 2.286 7.015 1.372 8.921-1.463 2.563-1.829 10.218-1.829 13.726-1.463-2.196-1.372-7.473-1.143-9.837-1.143 2.974-.457 5.948-.457 7.778 0 1.83 2.286 8.464 1.6 8.922-.548.366-2.667 1.22-3.657 1.601l-.914-8.464v8.922c-.686.686-4.343.915-5.258.915-.731 0-.304-3.966 0-5.948l-1.142 5.033c-2.926.183-5.791-2.517-6.858-3.889 1.6-1.601 3.2-14.87 4.114-20.817z" fill="#3C56C6"/><mask id="a" style="mask-type:alpha" maskUnits="userSpaceOnUse" x="3" y="148" width="42" height="29"><path d="M44.352 172.8c-2.13 5.151-12.922 4.783-24.104-.822-11.183-5.604-18.521-14.323-16.391-19.474 2.13-5.15 12.921-4.782 24.104.823 11.182 5.604 18.52 14.323 16.39 19.473z" fill="#F4A0D7"/></mask><g mask="url(#a)"><path d="M41.531 179.624c-2.13 5.15-12.921 4.782-24.104-.822-11.182-5.605-18.52-14.324-16.39-19.474 2.129-5.151 12.92-4.782 24.103.822 11.183 5.605 18.521 14.323 16.391 19.474z" fill="#BECCFF"/></g><mask id="b" style="mask-type:alpha" maskUnits="userSpaceOnUse" x="15" y="134" width="32" height="42"><path d="M44.815 174.466c-4.076 3.447-13.448-2.455-20.932-13.182-7.485-10.728-10.247-22.218-6.17-25.666 4.076-3.447 13.448 2.455 20.932 13.182 7.485 10.728 10.247 22.219 6.17 25.666z" fill="#C4C4C4"/></mask><g mask="url(#b)"><path d="M39.413 179.033c-4.076 3.447-13.448-2.455-20.933-13.182-7.484-10.728-10.247-22.218-6.17-25.666 4.077-3.447 13.449 2.455 20.933 13.182 7.484 10.728 10.247 22.219 6.17 25.666z" fill="#8FA6F9"/></g><mask id="c" style="mask-type:alpha" maskUnits="userSpaceOnUse" x="33" y="134" width="18" height="43"><path d="M44.454 176.966c-4.422.596-9.055-8.355-10.348-19.992-1.293-11.636 1.244-21.553 5.666-22.148 4.422-.596 9.055 8.355 10.348 19.992 1.293 11.637-1.244 21.553-5.666 22.148z" fill="#8D8D8D"/></mask><g mask="url(#c)"><path d="M38.594 177.755c-4.422.595-9.055-8.356-10.348-19.992-1.292-11.637 1.245-21.553 5.667-22.149 4.422-.595 9.055 8.356 10.348 19.992 1.292 11.637-1.245 21.553-5.667 22.149z" fill="#6785EF"/></g><defs><linearGradient id="paint0_linear_201_2245" x1="242.756" y1="52.794" x2="34.672" y2="92.165" gradientUnits="userSpaceOnUse"><stop stop-color="#FFBDD1"/><stop offset="1" stop-color="#7795FF" stop-opacity=".58"/></linearGradient><linearGradient id="paint1_linear_201_2245" x1="117.475" y1="179.97" x2="39.67" y2="202.946" gradientUnits="userSpaceOnUse"><stop stop-color="#FFBDD1"/><stop offset="1" stop-color="#7795FF" stop-opacity=".58"/></linearGradient><linearGradient id="paint2_linear_201_2245" x1="185.621" y1="217.288" x2="107.817" y2="240.264" gradientUnits="userSpaceOnUse"><stop stop-color="#FFBDD1"/><stop offset="1" stop-color="#7795FF" stop-opacity=".58"/></linearGradient></defs></svg>