<svg width="285" height="221" fill="none" xmlns="http://www.w3.org/2000/svg"><path opacity=".25" d="M47.346 90.9c29.895-12.004 121.096-28.757 195.613-4.944 35.358 11.299 53.13 31.333 34.604 51.081-19.636 20.929-126.879 37.337-190.67 22.362-95.337-22.379-62.586-59.25-39.547-68.5z" fill="url(#paint0_linear_201_2355)"/><path fill-rule="evenodd" clip-rule="evenodd" d="M243.414 38.96c-.6-.464-1.108-1.024-1.027-1.52.814-.53 1.747-2.123 1.05-4.247-.871-2.654-2.789-3.716-3.834-2.831-1.046.885-1.918 6.017.697 7.079.681.494 1.958 1.477 2.436 2.033-.375.365-.721.85-.994 1.454-.732 1.617.184 2.518.866 2.987.038.345-.256.817-.652 1.23-.963-1.992-2.557-2.719-3.476-1.941-1.046.885-1.918 6.018.697 7.079.813.59 1.948 2.195 2.087 2.62.14.425 1.391.177 1.739 0-.813-.412-1.878-1.77-1.739-2.62.801-.522 1.717-2.072 1.083-4.144.577-.62 1.42-1.417 1.901-1.68 2.351-.66 1.88-4.735 1.014-5.497-.456-.4-1.155-.395-1.848-.003z" fill="#F9759C"/><path d="M114.493 57.136c.898 1.602 2.108 4.56 2.458 4.631-6.596-.507-11.923-9.64-9.265-13.516-4.434 0-7.89-5.249-9.254-5.51 5.931-.878 13.341.01 14.762 5.32 1.421 5.31.401 7.473 1.299 9.075z" fill="#6885EF" fill-opacity=".5"/><path d="M111.576 42.15c3.436-7.697 10.05-10.711 13.14-12.527.292 1.706.023 3.122-.873 6.436s-3.006 7.22-6.888 9.321c4.262 3.955-1.971 15.254-2.552 16.414a.128.128 0 01-.021.073c-.036.048-.026.02.021-.073.045-1.092-7.005-10.286-2.827-19.643z" fill="#6885EF"/><path opacity=".4" d="M37.23 184.12c20.563 0 37.231-3.333 37.231-7.446 0-4.112-16.668-7.446-37.23-7.446-20.562 0-37.231 3.334-37.231 7.446 0 4.113 16.669 7.446 37.23 7.446z" fill="url(#paint1_linear_201_2355)"/><path d="M35.2 169.971h39.04v6.508s-2.365 2.366-19.52 2.366c-17.154 0-19.52-2.366-19.52-2.366v-6.508z" fill="url(#paint2_linear_201_2355)"/><path d="M54.72 172.929c10.78 0 19.52-1.324 19.52-2.958 0-1.633-8.74-2.957-19.52-2.957-10.781 0-19.52 1.324-19.52 2.957 0 1.634 8.739 2.958 19.52 2.958z" fill="#F9AEC5"/><path d="M35.2 162.898h39.04v6.507s-2.365 2.366-19.52 2.366c-17.154 0-19.52-2.366-19.52-2.366v-6.507z" fill="url(#paint3_linear_201_2355)"/><path d="M54.72 165.856c10.78 0 19.52-1.324 19.52-2.958 0-1.633-8.74-2.957-19.52-2.957-10.781 0-19.52 1.324-19.52 2.957 0 1.634 8.739 2.958 19.52 2.958z" fill="#F9AEC5"/><path d="M35.2 156.065h39.04v6.507s-2.365 2.367-19.52 2.367c-17.154 0-19.52-2.367-19.52-2.367v-6.507z" fill="url(#paint4_linear_201_2355)"/><path d="M54.72 159.023c10.78 0 19.52-1.324 19.52-2.958 0-1.633-8.74-2.957-19.52-2.957-10.781 0-19.52 1.324-19.52 2.957 0 1.634 8.739 2.958 19.52 2.958z" fill="#F9AEC5"/><path d="M35.2 149.233h39.04v6.507s-2.365 2.366-19.52 2.366c-17.154 0-19.52-2.366-19.52-2.366v-6.507z" fill="url(#paint5_linear_201_2355)"/><path d="M54.72 152.191c10.78 0 19.52-1.324 19.52-2.957 0-1.634-8.74-2.958-19.52-2.958-10.781 0-19.52 1.324-19.52 2.958 0 1.633 8.739 2.957 19.52 2.957z" fill="#F9AEC5"/><path d="M38.127 142.401h39.041v6.507s-2.366 2.366-19.52 2.366c-17.155 0-19.521-2.366-19.521-2.366v-6.507z" fill="url(#paint6_linear_201_2355)"/><path d="M57.648 145.359c10.78 0 19.52-1.324 19.52-2.958 0-1.633-8.74-2.957-19.52-2.957-10.781 0-19.521 1.324-19.521 2.957 0 1.634 8.74 2.958 19.52 2.958z" fill="#F9AEC5"/><path opacity=".4" d="M25 89.909c11.096 0 20.09-1.799 20.09-4.018 0-2.22-8.994-4.018-20.09-4.018-11.095 0-20.09 1.799-20.09 4.018s8.995 4.018 20.09 4.018z" fill="url(#paint7_linear_201_2355)"/><path d="M23.904 82.274h21.067v3.511s-1.276 1.277-10.533 1.277-10.534-1.277-10.534-1.277v-3.51z" fill="url(#paint8_linear_201_2355)"/><path d="M34.438 83.87c5.817 0 10.533-.714 10.533-1.596 0-.881-4.716-1.596-10.533-1.596-5.818 0-10.534.715-10.534 1.596 0 .882 4.716 1.596 10.534 1.596z" fill="#F9AEC5"/><path d="M23.904 78.456h21.067v3.512s-1.276 1.276-10.533 1.276-10.534-1.276-10.534-1.276v-3.512z" fill="url(#paint9_linear_201_2355)"/><path d="M34.438 80.053c5.817 0 10.533-.715 10.533-1.596 0-.882-4.716-1.596-10.533-1.596-5.818 0-10.534.714-10.534 1.596 0 .881 4.716 1.596 10.534 1.596z" fill="#F9AEC5"/><path d="M23.904 74.77h21.067v3.512s-1.276 1.276-10.533 1.276-10.534-1.276-10.534-1.276V74.77z" fill="url(#paint10_linear_201_2355)"/><path d="M34.438 76.366c5.817 0 10.533-.715 10.533-1.596 0-.882-4.716-1.596-10.533-1.596-5.818 0-10.534.714-10.534 1.596 0 .881 4.716 1.596 10.534 1.596z" fill="#F9AEC5"/><path d="M23.904 71.084h21.067v3.51s-1.276 1.278-10.533 1.278-10.534-1.277-10.534-1.277v-3.511z" fill="url(#paint11_linear_201_2355)"/><path d="M34.438 72.68c5.817 0 10.533-.715 10.533-1.597 0-.88-4.716-1.596-10.533-1.596-5.818 0-10.534.715-10.534 1.597 0 .881 4.716 1.596 10.534 1.596z" fill="#F9AEC5"/><path d="M24.01 67.397h21.067v3.51s-1.277 1.278-10.533 1.278c-9.257 0-10.534-1.277-10.534-1.277v-3.511z" fill="url(#paint12_linear_201_2355)"/><path d="M34.545 68.993c5.818 0 10.534-.715 10.534-1.596 0-.882-4.716-1.597-10.534-1.597-5.817 0-10.533.715-10.533 1.597 0 .881 4.716 1.596 10.533 1.596z" fill="#F9AEC5"/><path opacity=".4" d="M115.336 69.289c11.096 0 20.091-1.799 20.091-4.018 0-2.22-8.995-4.018-20.091-4.018-11.095 0-20.09 1.799-20.09 4.018 0 2.22 8.995 4.018 20.09 4.018z" fill="url(#paint13_linear_201_2355)"/><path d="M114.238 61.654h21.067v3.511s-1.276 1.277-10.533 1.277-10.534-1.277-10.534-1.277v-3.51z" fill="url(#paint14_linear_201_2355)"/><path d="M124.772 63.25c5.817 0 10.533-.714 10.533-1.596 0-.881-4.716-1.596-10.533-1.596-5.818 0-10.534.715-10.534 1.596 0 .882 4.716 1.596 10.534 1.596z" fill="#F9AEC5"/><path d="M114.238 57.837h21.067v3.511s-1.276 1.277-10.533 1.277-10.534-1.277-10.534-1.277v-3.511z" fill="url(#paint15_linear_201_2355)"/><path d="M124.772 59.433c5.817 0 10.533-.715 10.533-1.596 0-.882-4.716-1.596-10.533-1.596-5.818 0-10.534.715-10.534 1.596 0 .881 4.716 1.596 10.534 1.596z" fill="#F9AEC5"/><path d="M114.238 54.15h21.067v3.511s-1.276 1.277-10.533 1.277-10.534-1.277-10.534-1.277V54.15z" fill="url(#paint16_linear_201_2355)"/><path d="M124.772 55.746c5.817 0 10.533-.715 10.533-1.596 0-.881-4.716-1.596-10.533-1.596-5.818 0-10.534.715-10.534 1.596 0 .881 4.716 1.596 10.534 1.596z" fill="#F9AEC5"/><path d="M114.238 50.463h21.067v3.511s-1.276 1.277-10.533 1.277-10.534-1.277-10.534-1.277v-3.51z" fill="url(#paint17_linear_201_2355)"/><path d="M124.772 52.059c5.817 0 10.533-.715 10.533-1.596 0-.882-4.716-1.596-10.533-1.596-5.818 0-10.534.715-10.534 1.596 0 .881 4.716 1.596 10.534 1.596z" fill="#F9AEC5"/><path d="M111.891 46.777h21.067v3.51s-1.277 1.278-10.534 1.278c-9.256 0-10.533-1.277-10.533-1.277v-3.511z" fill="url(#paint18_linear_201_2355)"/><path d="M122.424 48.373c5.818 0 10.534-.715 10.534-1.596 0-.882-4.716-1.596-10.534-1.596-5.817 0-10.533.714-10.533 1.596 0 .881 4.716 1.596 10.533 1.596z" fill="#F9AEC5"/><path opacity=".4" d="M245.875 60.49c11.096 0 20.091-1.8 20.091-4.019 0-2.219-8.995-4.018-20.091-4.018-11.095 0-20.09 1.8-20.09 4.018 0 2.22 8.995 4.019 20.09 4.019z" fill="url(#paint19_linear_201_2355)"/><path d="M244.779 52.855h21.067v3.51s-1.277 1.278-10.533 1.278c-9.257 0-10.534-1.277-10.534-1.277v-3.511z" fill="url(#paint20_linear_201_2355)"/><path d="M255.313 54.45c5.817 0 10.533-.714 10.533-1.595 0-.882-4.716-1.596-10.533-1.596-5.818 0-10.534.714-10.534 1.596 0 .881 4.716 1.596 10.534 1.596z" fill="#F9AEC5"/><path d="M244.779 49.038h21.067v3.511s-1.277 1.277-10.533 1.277c-9.257 0-10.534-1.277-10.534-1.277v-3.51z" fill="url(#paint21_linear_201_2355)"/><path d="M255.313 50.634c5.817 0 10.533-.715 10.533-1.596 0-.882-4.716-1.596-10.533-1.596-5.818 0-10.534.714-10.534 1.596 0 .881 4.716 1.596 10.534 1.596z" fill="#F9AEC5"/><path d="M244.779 45.352h21.067v3.51s-1.277 1.277-10.533 1.277c-9.257 0-10.534-1.276-10.534-1.276v-3.511z" fill="url(#paint22_linear_201_2355)"/><path d="M255.313 46.947c5.817 0 10.533-.714 10.533-1.596 0-.881-4.716-1.596-10.533-1.596-5.818 0-10.534.715-10.534 1.596 0 .882 4.716 1.596 10.534 1.596z" fill="#F9AEC5"/><path opacity=".4" d="M224.858 218.978c21.42 0 38.785-4.176 38.785-9.328 0-5.152-17.365-9.328-38.785-9.328-21.421 0-38.786 4.176-38.786 9.328 0 5.152 17.365 9.328 38.786 9.328z" fill="url(#paint23_linear_201_2355)"/><path d="M224.12 206.459l-.981-8.101h4.172v8.101h-3.191zm27.984-2.946l-3.436-7.119 3.436-2.209 2.701 7.364-2.701 1.964z" fill="#FCD8E3"/><path d="M218.72 173.074c-.197-2.16 1.391-16.283 2.209-23.074 2.128-.246 6.873-.59 8.838 0 2.454.736 8.837-4.174 9.573-3.437.737.736 2.21 9.328 2.455 11.537.196 1.768 1.064 11.21 1.473 15.711l9.573 20.865c.197 1.571-3.027 2.618-4.664 2.946l-11.782-21.111-6.628-13.747-2.455 12.765v23.811c-.786.786-3.601.327-4.91 0-1.145-7.855-3.486-24.106-3.682-26.266z" fill="#1773FC"/><path d="M189.548 104.867l3.007 1.919-2.03 3.407c-.782-.398-3.145-1.543-6.339-2.935-3.992-1.741-7.315-8.26-5.869-9.865 1.446-1.605 2.969-.684 5.726.647 2.206 1.065 4.606 4.028 5.505 6.827z" fill="#FCD8E3"/><path d="M203.009 120.787l-13.501-10.065c0-2.552 1.636-4.336 2.455-4.909l13.255 6.137h23.321c-.491 1.637-1.473 5.4-1.473 7.364 0 1.964-4.419 2.782-6.628 2.946l-17.429-1.473z" fill="#F9AEC5"/><path d="M246.589 155.126l.761-2.283 2.069.507a82.408 82.408 0 00-.514 4.338c-.257 2.711-3.6 5.964-4.887 5.422-1.285-.543-1.028-1.627-.771-3.525.206-1.518 1.799-3.375 3.342-4.459zm-19.027-47.948c.186.912.254 3.298-1.138 4.391.851.456 3.017 1.231 4.873.684 1.856-.547 4.22-2.582 4.607-3.494-1.16-.456-3.695-5.894-2.055-7.908.928-1.14 2.552-3.649 2.785-8.666.232-5.017-5.801-4.56-8.121-3.877-2.321.684-5.105 5.245-5.801 7.982-.696 2.736 0 7.297 0 7.981 0 .548 2.475 1.293 3.712 1.597.155-.152.953.398 1.138 1.31z" fill="#FCD8E3"/><path d="M220.929 120.542c.589-3.535 3.927-8.182 5.4-9.574.9.328 1.719.737 3.682.737 1.965 0 4.419-2.455 5.401-3.683 0 0 9.819 6.056 11.046 7.611 1.228 1.554 4.714 19.736 4.91 22.092.245 2.946-.245 16.861-1.473 17.597-.981.589-2.7-.9-3.437-1.718l-.981-14.16-6.137-13.992c-.328 2.945 0 7.659 0 8.837s-.328 9.491 0 12.273c-.082.41-1.031 1.572-4.174 2.946-3.141 1.375-11.291 1.555-14.237.982v-13.992c0-2.455-.736-11.538 0-15.956z" fill="#F9AEC5"/><path d="M225.103 91.576c-.982.082-2.946 0-2.946-.982 0-1.228-1.472-1.964-1.964-1.719.246-.9.982-2.16 1.964-1.963 1.228.245 1.964-.492 1.964-.982-.573 0-1.718-.148-1.718-.737 0-.498-.235-.797-.406-.927a1.957 1.957 0 01-.085-.055c.025.013.054.03.085.055.527.319 1.567.688 2.124-.055.736-.981 2.209-.981 2.7-.49.491.49.491.736.982.49-.491-.49-.491-1.178-.491-1.963 0-.983 0-1.473.491-2.21.082.327.393 1.179.982 1.964.737.982 2.455 1.718 3.191 1.718.737 0 5.155 2.21 4.664 4.173-.49 1.965.737 4.42 0 6.137-.736 1.719-1.227 4.91-1.963 5.892-.737.982-1.473 1.473-1.473 1.964-1.146-2.006 0-5.892-1.228-7.856-1.483-2.373-4.173-3.436-6.873-2.454z" fill="#F9759C"/><path d="M250.14 206.95c.982-1.179 1.391-3.274 1.473-4.174l3.436-1.963 2.701 6.137c-.082.654-.884 2.356-3.437 3.927-2.553 1.572-6.955 2.128-8.837 2.209-.082-.49-.197-1.718 0-2.699.245-1.228 3.437-1.965 4.664-3.437zm-26.019-.491c.736.245 2.454-.246 3.191-.737l.736 5.401c-.982.818-3.436 2.651-5.4 3.436-1.964.786-5.237 1.146-6.628 1.228-.786-1.179-.328-2.455 0-2.946a28.739 28.739 0 013.682-1.718c1.571-.589 3.682-3.437 4.419-4.664z" fill="#fff"/><path opacity=".1" d="M67.006 214.211l77.598-.482 37.539-25.926H98.715a30.44 30.44 0 00-17.106 5.26L64.124 204.94c-4.148 2.817-2.132 9.302 2.882 9.271z" fill="url(#paint24_linear_201_2355)"/><path d="M135.748 89.04v117.841c0 6.127 6.869 9.742 11.919 6.275l5.816-3.994 25.108-20.006a12.686 12.686 0 004.78-9.92V53.391c0-2.395-2.638-3.852-4.665-2.577L145.239 71.86a20.295 20.295 0 00-9.491 17.18z" fill="#F3F3F3"/><path d="M137.713 90.097v115.1c0 6.185 6.987 9.788 12.025 6.199l31.252-22.255a12.686 12.686 0 005.327-10.332V54.064c0-1.968-2.144-3.187-3.836-2.18l-34.863 20.778a20.296 20.296 0 00-9.905 17.434z" fill="#fff" stroke="#F3F3F3" stroke-width="1.015"/><path d="M137.713 89.928v26.195s15.131 9.572 29.948.982c16.938-9.819 18.901-30.93 18.901-30.93V53.148c0-1.983-2.172-3.199-3.862-2.163l-35.3 21.641a20.294 20.294 0 00-9.687 17.302z" fill="#1773FC"/><path d="M153.408 98.388v-2.724c0-4.28 19.07-6.227 19.459-6.227.389 0 0 4.281 0 4.281 0 .779-1.557 3.503-6.227 5.449-6.685 2.785-12.843 1.167-13.232-.779z" fill="url(#paint25_linear_201_2355)"/><path d="M164.701 96.464c5.369-1.731 9.103-5.056 8.338-7.426-.764-2.37-5.736-2.888-11.106-1.157-5.369 1.73-9.103 5.055-8.339 7.426.765 2.37 5.737 2.888 11.107 1.157z" fill="#F9AEC5"/><path d="M153.408 94.497v-2.725c0-4.28 19.07-6.226 19.459-6.226.389 0 0 4.28 0 4.28 0 .779-1.557 3.503-6.227 5.449-6.685 2.785-12.843 1.167-13.232-.778z" fill="url(#paint26_linear_201_2355)"/><path d="M164.701 92.572c5.369-1.731 9.103-5.056 8.338-7.426-.764-2.37-5.736-2.888-11.106-1.157-5.369 1.731-9.103 5.056-8.339 7.426.765 2.37 5.737 2.888 11.107 1.157z" fill="#F9AEC5"/><path d="M153.408 90.605v-2.724c0-4.28 19.07-6.227 19.459-6.227.389 0 0 4.281 0 4.281 0 .778-1.557 3.503-6.227 5.448-6.685 2.785-12.843 1.168-13.232-.778z" fill="url(#paint27_linear_201_2355)"/><path d="M164.638 88.858c5.393-1.738 9.135-5.101 8.358-7.51-.777-2.41-5.778-2.955-11.171-1.216s-9.135 5.102-8.358 7.511c.777 2.41 5.779 2.954 11.171 1.215z" fill="#F9AEC5"/><path d="M163.885 127.725c3.69.624 7.44-3.357 8.377-8.892.936-5.536-1.296-10.529-4.987-11.153-3.69-.624-7.44 3.357-8.377 8.892-.936 5.535 1.296 10.529 4.987 11.153z" fill="#6386FF"/><path d="M160.051 173.811v-3.191l21.111-12.52v2.946l-21.111 12.765zm0 5.645v-3.191l14.237-8.346v2.945l-14.237 8.592z" fill="#EAEAEA"/><path d="M150.993 186.216c2.59.438 5.222-2.356 5.879-6.24.657-3.885-.909-7.389-3.499-7.828-2.59-.438-5.222 2.356-5.879 6.241-.657 3.885.909 7.389 3.499 7.827z" fill="#B2C3FF"/><path d="M160.051 149.754v-3.192l21.111-12.519v2.946l-21.111 12.765zm0 5.645v-3.191l14.237-8.346v2.946l-14.237 8.591z" fill="#EAEAEA"/><path d="M150.993 162.16c2.59.438 5.222-2.356 5.879-6.241.657-3.885-.909-7.389-3.499-7.827-2.59-.438-5.222 2.356-5.879 6.24-.657 3.885.909 7.389 3.499 7.828z" fill="#B2C3FF"/><path d="M163.486 119.156l2.026 2.613 3.375-7.364" stroke="#fff" stroke-width="1.522" stroke-linecap="round" stroke-linejoin="round"/><path d="M181.644 49.843c-1.759.255-2.446.738-2.937.983l2.7.982c2.013-1.457 4.174-.736 4.174-.736-.573-.409-2.179-1.483-3.937-1.229z" fill="#F3F3F3"/><path d="M34.367 67.273c0-71.212 117.088-99.88 122.923-2.461m98.685-19.987c2.537-60.941-87.016-59.871-87.016 12.938m-45.24-11.11c0-23.565 39.657-60.74 39.657 14.607M56.46 140.671C29.934 19.908 151.2-3.939 151.2 68.871" stroke="#F9B2C8" stroke-width="1.414" stroke-linecap="round" stroke-linejoin="round" stroke-dasharray="4.71 7.07"/><mask id="a" style="mask-type:alpha" maskUnits="userSpaceOnUse" x="97" y="189" width="40" height="27"><path d="M135.982 211.846c-1.998 4.832-12.122 4.487-22.613-.771s-17.376-13.438-15.377-18.269c1.998-4.832 12.122-4.487 22.613.771 10.49 5.258 17.375 13.437 15.377 18.269z" fill="#F4A0D7"/></mask><g mask="url(#a)"><path d="M133.335 218.248c-1.998 4.832-12.122 4.486-22.613-.771-10.49-5.258-17.375-13.438-15.377-18.27 1.998-4.831 12.122-4.486 22.613.772 10.491 5.257 17.375 13.437 15.377 18.269z" fill="#BECCFF"/></g><mask id="b" style="mask-type:alpha" maskUnits="userSpaceOnUse" x="109" y="176" width="30" height="39"><path d="M136.416 213.409c-3.825 3.234-12.617-2.303-19.638-12.367-7.022-10.064-9.613-20.844-5.789-24.078 3.825-3.234 12.617 2.303 19.638 12.367 7.022 10.064 9.613 20.844 5.789 24.078z" fill="#C4C4C4"/></mask><g mask="url(#b)"><path d="M131.349 217.693c-3.824 3.234-12.616-2.302-19.638-12.366-7.021-10.064-9.613-20.844-5.788-24.078 3.824-3.234 12.617 2.302 19.638 12.366 7.021 10.064 9.613 20.844 5.788 24.078z" fill="#8FA6F9"/></g><mask id="c" style="mask-type:alpha" maskUnits="userSpaceOnUse" x="126" y="176" width="16" height="40"><path d="M136.077 215.755c-4.148.558-8.495-7.839-9.707-18.756-1.213-10.917 1.167-20.22 5.315-20.778 4.149-.559 8.495 7.838 9.708 18.755 1.213 10.917-1.167 20.22-5.316 20.779z" fill="#8D8D8D"/></mask><g mask="url(#c)"><path d="M130.583 216.494c-4.148.559-8.495-7.838-9.707-18.755-1.213-10.917 1.167-20.22 5.315-20.779 4.149-.558 8.495 7.839 9.708 18.756 1.213 10.917-1.167 20.22-5.316 20.778z" fill="#6386FF"/></g><defs><linearGradient id="paint0_linear_201_2355" x1="161.305" y1="81.308" x2="145.699" y2="149.025" gradientUnits="userSpaceOnUse"><stop stop-color="#5F7AEC"/><stop offset="1" stop-color="#F9AEC5"/></linearGradient><linearGradient id="paint1_linear_201_2355" x1="72.159" y1="175.03" x2="16.919" y2="208.182" gradientUnits="userSpaceOnUse"><stop stop-color="#FFBDD1"/><stop offset="1" stop-color="#7795FF" stop-opacity=".58"/></linearGradient><linearGradient id="paint2_linear_201_2355" x1="35.199" y1="178.588" x2="73.896" y2="178.588" gradientUnits="userSpaceOnUse"><stop stop-color="#F9AEC5"/><stop offset=".536" stop-color="#FFDAE6"/><stop offset="1" stop-color="#F9AEC5"/></linearGradient><linearGradient id="paint3_linear_201_2355" x1="35.199" y1="171.515" x2="73.896" y2="171.515" gradientUnits="userSpaceOnUse"><stop stop-color="#F9AEC5"/><stop offset=".536" stop-color="#FFDAE6"/><stop offset="1" stop-color="#F9AEC5"/></linearGradient><linearGradient id="paint4_linear_201_2355" x1="35.199" y1="164.682" x2="73.896" y2="164.682" gradientUnits="userSpaceOnUse"><stop stop-color="#F9AEC5"/><stop offset=".536" stop-color="#FFDAE6"/><stop offset="1" stop-color="#F9AEC5"/></linearGradient><linearGradient id="paint5_linear_201_2355" x1="35.199" y1="157.85" x2="73.896" y2="157.85" gradientUnits="userSpaceOnUse"><stop stop-color="#F9AEC5"/><stop offset=".536" stop-color="#FFDAE6"/><stop offset="1" stop-color="#F9AEC5"/></linearGradient><linearGradient id="paint6_linear_201_2355" x1="38.127" y1="151.018" x2="76.824" y2="151.018" gradientUnits="userSpaceOnUse"><stop stop-color="#F9AEC5"/><stop offset=".536" stop-color="#FFDAE6"/><stop offset="1" stop-color="#F9AEC5"/></linearGradient><linearGradient id="paint7_linear_201_2355" x1="43.848" y1="85.004" x2="14.04" y2="102.893" gradientUnits="userSpaceOnUse"><stop stop-color="#FFBDD1"/><stop offset="1" stop-color="#7795FF" stop-opacity=".58"/></linearGradient><linearGradient id="paint8_linear_201_2355" x1="23.904" y1="86.924" x2="44.786" y2="86.924" gradientUnits="userSpaceOnUse"><stop stop-color="#F9AEC5"/><stop offset=".536" stop-color="#FFDAE6"/><stop offset="1" stop-color="#F9AEC5"/></linearGradient><linearGradient id="paint9_linear_201_2355" x1="23.904" y1="83.106" x2="44.786" y2="83.106" gradientUnits="userSpaceOnUse"><stop stop-color="#F9AEC5"/><stop offset=".536" stop-color="#FFDAE6"/><stop offset="1" stop-color="#F9AEC5"/></linearGradient><linearGradient id="paint10_linear_201_2355" x1="23.904" y1="79.42" x2="44.786" y2="79.42" gradientUnits="userSpaceOnUse"><stop stop-color="#F9AEC5"/><stop offset=".536" stop-color="#FFDAE6"/><stop offset="1" stop-color="#F9AEC5"/></linearGradient><linearGradient id="paint11_linear_201_2355" x1="23.904" y1="75.733" x2="44.786" y2="75.733" gradientUnits="userSpaceOnUse"><stop stop-color="#F9AEC5"/><stop offset=".536" stop-color="#FFDAE6"/><stop offset="1" stop-color="#F9AEC5"/></linearGradient><linearGradient id="paint12_linear_201_2355" x1="24.01" y1="72.046" x2="44.892" y2="72.046" gradientUnits="userSpaceOnUse"><stop stop-color="#F9AEC5"/><stop offset=".536" stop-color="#FFDAE6"/><stop offset="1" stop-color="#F9AEC5"/></linearGradient><linearGradient id="paint13_linear_201_2355" x1="134.184" y1="64.384" x2="104.376" y2="82.273" gradientUnits="userSpaceOnUse"><stop stop-color="#FFBDD1"/><stop offset="1" stop-color="#7795FF" stop-opacity=".58"/></linearGradient><linearGradient id="paint14_linear_201_2355" x1="114.238" y1="66.304" x2="135.12" y2="66.304" gradientUnits="userSpaceOnUse"><stop stop-color="#F9AEC5"/><stop offset=".536" stop-color="#FFDAE6"/><stop offset="1" stop-color="#F9AEC5"/></linearGradient><linearGradient id="paint15_linear_201_2355" x1="114.238" y1="62.487" x2="135.12" y2="62.487" gradientUnits="userSpaceOnUse"><stop stop-color="#F9AEC5"/><stop offset=".536" stop-color="#FFDAE6"/><stop offset="1" stop-color="#F9AEC5"/></linearGradient><linearGradient id="paint16_linear_201_2355" x1="114.238" y1="58.8" x2="135.12" y2="58.8" gradientUnits="userSpaceOnUse"><stop stop-color="#F9AEC5"/><stop offset=".536" stop-color="#FFDAE6"/><stop offset="1" stop-color="#F9AEC5"/></linearGradient><linearGradient id="paint17_linear_201_2355" x1="114.238" y1="55.113" x2="135.12" y2="55.113" gradientUnits="userSpaceOnUse"><stop stop-color="#F9AEC5"/><stop offset=".536" stop-color="#FFDAE6"/><stop offset="1" stop-color="#F9AEC5"/></linearGradient><linearGradient id="paint18_linear_201_2355" x1="111.891" y1="51.426" x2="132.773" y2="51.426" gradientUnits="userSpaceOnUse"><stop stop-color="#F9AEC5"/><stop offset=".536" stop-color="#FFDAE6"/><stop offset="1" stop-color="#F9AEC5"/></linearGradient><linearGradient id="paint19_linear_201_2355" x1="264.723" y1="55.584" x2="234.915" y2="73.474" gradientUnits="userSpaceOnUse"><stop stop-color="#FFBDD1"/><stop offset="1" stop-color="#7795FF" stop-opacity=".58"/></linearGradient><linearGradient id="paint20_linear_201_2355" x1="244.779" y1="57.504" x2="265.661" y2="57.504" gradientUnits="userSpaceOnUse"><stop stop-color="#F9AEC5"/><stop offset=".536" stop-color="#FFDAE6"/><stop offset="1" stop-color="#F9AEC5"/></linearGradient><linearGradient id="paint21_linear_201_2355" x1="244.779" y1="53.688" x2="265.661" y2="53.688" gradientUnits="userSpaceOnUse"><stop stop-color="#F9AEC5"/><stop offset=".536" stop-color="#FFDAE6"/><stop offset="1" stop-color="#F9AEC5"/></linearGradient><linearGradient id="paint22_linear_201_2355" x1="244.779" y1="50.001" x2="265.661" y2="50.001" gradientUnits="userSpaceOnUse"><stop stop-color="#F9AEC5"/><stop offset=".536" stop-color="#FFDAE6"/><stop offset="1" stop-color="#F9AEC5"/></linearGradient><linearGradient id="paint23_linear_201_2355" x1="261.245" y1="207.59" x2="198.579" y2="238.865" gradientUnits="userSpaceOnUse"><stop stop-color="#FFBDD1"/><stop offset="1" stop-color="#7795FF" stop-opacity=".58"/></linearGradient><linearGradient id="paint24_linear_201_2355" x1="178.425" y1="198.092" x2="84.995" y2="249.158" gradientUnits="userSpaceOnUse"><stop stop-color="#FFBDD1"/><stop offset="1" stop-color="#7795FF" stop-opacity=".58"/></linearGradient><linearGradient id="paint25_linear_201_2355" x1="153.408" y1="100.334" x2="172.867" y2="100.334" gradientUnits="userSpaceOnUse"><stop stop-color="#F9AEC5"/><stop offset=".536" stop-color="#FFDAE6"/><stop offset="1" stop-color="#F9AEC5"/></linearGradient><linearGradient id="paint26_linear_201_2355" x1="153.408" y1="96.442" x2="172.867" y2="96.442" gradientUnits="userSpaceOnUse"><stop stop-color="#F9AEC5"/><stop offset=".536" stop-color="#FFDAE6"/><stop offset="1" stop-color="#F9AEC5"/></linearGradient><linearGradient id="paint27_linear_201_2355" x1="153.408" y1="92.551" x2="172.867" y2="92.551" gradientUnits="userSpaceOnUse"><stop stop-color="#F9AEC5"/><stop offset=".536" stop-color="#FFDAE6"/><stop offset="1" stop-color="#F9AEC5"/></linearGradient></defs></svg>