<svg width="285" height="247" fill="none" xmlns="http://www.w3.org/2000/svg"><path opacity=".25" d="M157.176 197.636c-85.739 19.165-126.881 12.043-126.881-36.445 0-149.552 254.705-144.525 254.705 0 0 44.656-42.085 17.28-127.824 36.445z" fill="url(#paint0_linear_201_2320)"/><path opacity=".25" d="M92.23 245.016c17.917 0 32.442-1.561 32.442-3.486 0-1.925-14.525-3.485-32.442-3.485-17.916 0-32.44 1.56-32.44 3.485 0 1.925 14.524 3.486 32.44 3.486z" fill="url(#paint1_linear_201_2320)"/><path d="M26.275 211.665c-7.24-18.931-10.993-27.51-26.275-23.22 17.427-15.283 44.816-3.377 45.264 23.22.45 26.598-9.235 29.481-9.235 29.481s-2.575-10.705-9.754-29.481z" fill="#6386FF"/><path d="M36.1 191.126c-12.317-24.776-21.817-44.782-5.388-66.76-21.865 32.71 26.288 53.313 23.44 80.537-2.848 27.225-18.053 36.291-18.053 36.291s12.316-25.293 0-50.068z" fill="#A0B5FF"/><path d="M52.158 146.154c.34 1.009 4.306 3.081 5.506 3.36l2.33-2.099c-.07-1.121-1.61-3.78-2.118-4.62-.636-1.05-3.812-2.31-5.718-1.05-1.906 1.26-.423 3.15 0 4.409zm58.514-50.574l-.411 5.862h3.416c0-.627.089-5.215.523-5.861.543-.807 1.629-3.765 1.9-6.992.271-3.227-2.714-3.496-3.8-3.496-1.085 0-2.714 2.69-2.985 4.572-.217 1.505.814 4.571 1.357 5.916zm-21.915 31.048c0 .848.287 3.673-.861 5.651 1.053.753 2.44 1.13 3.819 1.13 1.378 0 3.446-1.019 4.307-1.772l-1.622-5.009c.976-1.027 2.197-3.823 2.197-5.086 0-1.413 0-5.369-.575-6.781-.574-1.413-2.584-2.826-4.882-2.826-2.297 0-4.02 1.13-4.594 2.826-.574 1.695-.861 4.521-.574 6.781.23 1.808 2.115 4.144 2.785 5.086z" fill="#FCD8E3"/><path d="M91.473 123.892c-.732 0-2.44 1.708-2.684 1.952 0 .732 2.44 3.661 3.172 3.661.732 0 2.44-3.173 2.44-3.661 0-.487-2.196-1.952-2.928-1.952z" fill="#EFC9E3"/><path d="M83.42 207.591l-1.71-5.368 2.93-3.417c.325 1.383 1.024 5.711 1.22 7.077.195 1.367-1.465 1.871-2.44 1.708zm13.178 11.957l.488-8.54h4.636c-.407 2.277-1.952 8.54-2.44 9.272-.447.67-2.359-.325-2.684-.732z" fill="#FCD8E3"/><path d="M75.123 181.237c-.976-2.147 5.613-11.144 8.785-16.837l18.545-.977 4.637 26.598-5.613 23.915c-.732 1.22-5.368.732-5.124-1.22.195-1.562.976-17.895 1.708-22.695l-7.077-13.909-5.856 5.857v19.766c-.488 1.464-2.44 1.708-3.416 1.464-.977-.244-5.37-19.278-6.589-21.962z" fill="#3C56C6"/><path d="M71.708 160.251c-1.561.195-10.086-5.937-14.153-9.028-.976-2.929 1.545-4.474 2.928-4.881l11.225 6.345c.65-1.871 2.148-6.15 2.928-8.297.976-2.684 6.1-8.297 7.565-9.761.976-.976 3.905-2.847 5.612-3.66.732.244 1.465 1.22 4.148 1.22 3.173 0 4.15-2.196 4.15-2.196s2.684 0 3.66-.488c.975-.488 7.076-11.469 7.564-12.201.244-2.197 2.684-16.838 2.684-16.838s.732.488 1.953.488c1.464 0 2.195-.488 2.195-.488s.732 16.838 0 19.034c-.731 2.196-9.028 17.569-10.98 20.254-1.953 2.684-2.441 18.301-.488 24.157-3.66 4.149-6.23 4.149-10.737 4.149-4.88 0-7.402-2.359-8.297-3.416 1.464-3.66 0-18.302 0-18.302-3.335 4.555-10.395 13.714-11.957 13.909z" fill="#6386FF"/><path d="M95.776 227.681c-.476-1.22.308-6.916.685-8.352l.486.045 2.675.285 1.061 8.022c-.112 1.215-1.163 3.529-2.524 3.404-1.701-.156-1.788-1.879-2.383-3.404zm-10.83-20.758c-.863.577-1.307.477-1.42.355-.377 1.72-2.667 5.109-3.936 6.405.167.334.807 1.019 1.081 1.312.344.366 2.474-.165 3.92-1.43 1.156-1.011 2.966-3.903 3.726-5.223l-2.453-2.778c.053.213-.056.783-.918 1.359z" fill="#F5B4C8"/><path d="M85.573 110.227c-.585 1.757-.201 7.808.287 10.249 0-5.125 2.397-8.053 5.814-8.053 2.732 0 4.11 3.417 4.679 5.369-.163-.895.152-2.538.933-3.905s-.325-5.124-.976-6.832c0 .585-.976 1.22-1.464 1.464.39-1.367-.813-2.522-1.464-2.929-.244 1.953-3.417 3.661-2.685 2.929.586-.586-.244-2.196-.732-2.929-.244 1.221-3.66 2.441-4.392 4.637z" fill="#3C56C6"/><path opacity=".25" d="M200.552 246.147c12.129 0 21.962-1.857 21.962-4.149 0-2.291-9.833-4.148-21.962-4.148s-21.962 1.857-21.962 4.148c0 2.292 9.833 4.149 21.962 4.149z" fill="url(#paint2_linear_201_2320)"/><path d="M198.109 131.213v19.277h1.708v-16.593h5.369a.976.976 0 00.976-.976v-.084a.976.976 0 00-.286-.69l-1.624-1.624a.98.98 0 00-.69-.286h-4.477a.976.976 0 00-.976.976z" fill="#3C56C6"/><path d="M197.621 163.179h5.368v77.599s-.732.488-2.684.488c-1.952 0-2.684-.488-2.684-.488v-77.599z" fill="#B2C3FF"/><path d="M232.085 222.071c-8.738 2.545-16.191 13.931-18.894 19.191 5.596-3.378 21.437-7.179 21.437-7.179s17.106-5.173 23.267-9.352c-4.883 2.586-14.888-5.841-25.81-2.66z" fill="#FFE0EA"/><path d="M225.206 214.919c-7.567 6.268-11.04 20.235-12.015 26.343 4.313-5.645 18.113-16.28 18.113-16.28s14.755-12.449 19.361-19.092c-3.873 4.588-16 1.194-25.459 9.029z" fill="#FEC6D7"/><path d="M211.387 210.284c-4.497 8.725-.695 24.312 1.806 30.978 1.358-7.139 10.597-22.206 10.597-22.206s8.636-17.25 9.732-25.517c-1.501 5.908-16.514 5.838-22.135 16.745zm-24.991-69.066h25.379c5.39 0 9.761 4.37 9.761 9.76v12.202h-35.14v-21.962z" fill="#F9759C"/><path d="M179.076 149.514a8.297 8.297 0 018.297-8.296 8.297 8.297 0 018.297 8.296v13.666h-16.594v-13.666z" fill="#FEC6D7"/><path d="M191.521 155.371h-8.785a.732.732 0 000 1.464h8.785a.732.732 0 000-1.464z" fill="#FCE1E9"/><path d="M152.877 29.808l-51.638 34.284a2.44 2.44 0 00-.097 3.998l71.78 52.848c.857.63 2.023.633 2.883.008l52.825-38.427a2.44 2.44 0 00-.081-4.003L155.582 29.81a2.442 2.442 0 00-2.705-.003z" fill="#8798D1"/><path d="M152.578 28.126L100.94 62.41a2.44 2.44 0 00-.097 3.998l71.781 52.847a2.44 2.44 0 002.882.009l52.825-38.428a2.44 2.44 0 00-.081-4.002l-72.967-48.705a2.442 2.442 0 00-2.705-.003z" fill="url(#paint3_linear_201_2320)"/><path d="M168.431 103.565L116.544 64.65a1.004 1.004 0 011.198-1.61l52.168 38.539a1.238 1.238 0 11-1.479 1.986zM149.16 80.636l-26.749-19.89a1.004 1.004 0 011.187-1.62l27.017 19.525a1.23 1.23 0 11-1.455 1.985z" fill="#fff" fill-opacity=".2"/><path d="M157.854 50.014l-11.305-8.103a1.951 1.951 0 00-2.204-.047l-8.505 5.554a1.952 1.952 0 00-.104 3.196l11.285 8.464a1.951 1.951 0 002.284.042l8.525-5.916a1.952 1.952 0 00.024-3.19z" fill="#8798D1"/><path d="M144.422 42.679l-7.727 5.187a1.464 1.464 0 00-.055 2.392l10.595 7.839a1.464 1.464 0 001.672.049l7.944-5.194a1.463 1.463 0 00.058-2.41l-10.812-7.834a1.464 1.464 0 00-1.675-.03z" fill="#FFCBDA"/><path d="M139.98 45.428l13.362 9.956m-6.959-12.445l-3.063 2.212 10.022 7.468 3.34-2.213-10.299-7.467zm-10.022 6.914l2.506-1.66 9.743 7.191-2.506 1.66-9.743-7.191z" stroke="#fff" stroke-opacity=".3" stroke-width=".91"/><path d="M217.28 77.874l-11.482-7.59a1.607 1.607 0 00-1.827.038l-7.734 5.575a1.608 1.608 0 00.032 2.632l11.107 7.6a1.61 1.61 0 001.821-.002l8.109-5.586a1.609 1.609 0 00-.026-2.667z" fill="url(#paint4_linear_201_2320)"/><path d="M236.238 96.924l9.273 3.66M85.678 50.804l-11.713-2.928 11.713 2.928zm18.301-22.206l-5.124-7.564 5.124 7.564zm37.58-18.058L140.095 2l1.464 8.54zm51 2.929l2.928-6.589-2.928 6.589zm28.063 20.986l6.832-5.857-6.832 5.857zm18.301 28.062l10.005-1.708-10.005 1.708z" stroke="#E0DEDF" stroke-width="4" stroke-linecap="round" stroke-linejoin="round"/><defs><linearGradient id="paint0_linear_201_2320" x1="151.863" y1="82.801" x2="151.863" y2="198.779" gradientUnits="userSpaceOnUse"><stop stop-color="#FEC6D7"/><stop offset="1" stop-color="#BBCAFF"/></linearGradient><linearGradient id="paint1_linear_201_2320" x1="122.666" y1="240.761" x2="93.544" y2="273.296" gradientUnits="userSpaceOnUse"><stop stop-color="#FFBDD1"/><stop offset="1" stop-color="#7795FF" stop-opacity=".58"/></linearGradient><linearGradient id="paint2_linear_201_2320" x1="221.156" y1="241.083" x2="189.583" y2="261.146" gradientUnits="userSpaceOnUse"><stop stop-color="#FFBDD1"/><stop offset="1" stop-color="#7795FF" stop-opacity=".58"/></linearGradient><linearGradient id="paint3_linear_201_2320" x1="100.406" y1="66.186" x2="236.606" y2="82.809" gradientUnits="userSpaceOnUse"><stop stop-color="#6386FF"/><stop offset="1" stop-color="#3C56C6"/></linearGradient><linearGradient id="paint4_linear_201_2320" x1="206.824" y1="69.672" x2="206.824" y2="86.753" gradientUnits="userSpaceOnUse"><stop stop-color="#fff"/><stop offset="1" stop-color="#fff" stop-opacity="0"/></linearGradient></defs></svg>