<svg width="285" height="218" fill="none" xmlns="http://www.w3.org/2000/svg"><path opacity=".25" d="M258.694 108.572c-12.348 29.965-42.626 27.801-70.908 36.964-23.041 7.464-41.228 29.191-86.834 25.095-45.605-4.097-83.015-45.233-70.362-90.816C43.243 34.233 96.98 8.037 162.91 36.62c65.928 28.583 108.132 41.989 95.785 71.953z" fill="url(#paint0_linear_201_2448)"/><path opacity=".4" d="M188.298 185.807c27.552 0 49.888-1.596 49.888-3.564s-22.336-3.563-49.888-3.563-49.888 1.595-49.888 3.563c0 1.968 22.336 3.564 49.888 3.564z" fill="url(#paint1_linear_201_2448)"/><path d="M215.072 16.014h-69.201a9.207 9.207 0 00-9.207 9.207v112.6a9.207 9.207 0 009.207 9.207h69.201a9.207 9.207 0 009.207-9.207v-112.6a9.207 9.207 0 00-9.207-9.207z" fill="#B2C3FF"/><path d="M213.838 14.53h-69.201a9.207 9.207 0 00-9.207 9.207v112.6a9.207 9.207 0 009.207 9.207h69.201a9.207 9.207 0 009.207-9.207v-112.6a9.207 9.207 0 00-9.207-9.206z" fill="url(#paint2_linear_201_2448)"/><path d="M179.238 112.024c17.113 0 30.986-14.223 30.986-31.768 0-17.544-13.873-31.767-30.986-31.767s-30.986 14.223-30.986 31.767c0 17.545 13.873 31.768 30.986 31.768z" fill="#fff"/><path d="M174.963 76.97c0 3.444-4.701 5.039-6.197 5.477 1.852 1.607 6.667 4.82 11.112 4.82s7.835-3.213 8.975-4.82c-1.353-.803-4.701-3.023-4.701-5.477v-5.039h-9.189v5.04z" fill="#FCD8E3"/><path d="M157.012 91.977v10.407s6.411 9.421 23.079 9.421 20.728-9.421 20.728-9.421c.428-3.944 1.026-6.55 0-10.407-1.025-3.855-10.099-9.793-14.302-11.546-.997 1.607-3.959 4.073-7.891 4.073s-4.928-2.466-5.854-4.073c0 0-15.76 7.34-15.76 11.546z" fill="#B2C3FF"/><path d="M170.557 57.067c-.502-5.306 3.671-9.892 9.001-9.892 5.251 0 9.398 4.459 9.017 9.697l-.89 12.227a8.015 8.015 0 01-15.973.173l-1.155-12.205z" fill="#FCD8E3"/><path d="M171.545 66.673c-.926-1.826-2.778-9.947-1.923-13.802 1.069-4.82 12.608-8.107 11.967-10.736 2.351 1.096 7.266 6.441 7.266 12.926 0 6.27-.639 8.345-.929 9.877-.033.49-.082.93-.14 1.297 0-.447.055-.849.14-1.297.213-3.135-.192-8.361-2.704-9.877-3.633-2.19-7.907-2.778-11.754 0-2.991 2.162-2.492 9.836-1.923 11.612z" fill="#F9759C"/><path d="M154.662 36.877h-2.137v10.078h2.137V36.877z" fill="#D84AA8"/><path d="M152.525 36.877v2.191h9.83v-2.19h-9.83zm51.713 0h2.137v10.078h-2.137V36.877z" fill="#D84AA8"/><path d="M206.375 36.877v2.191h-9.83v-2.19h9.83zm-51.713 81.5h-2.137v-10.954h2.137v10.954z" fill="#D84AA8"/><path d="M152.525 118.377v-2.381h9.83v2.381h-9.83zm51.713 0h2.137v-10.954h-2.137v10.954z" fill="#D84AA8"/><path d="M206.375 118.377v-2.381h-9.83v2.381h9.83z" fill="#D84AA8"/><path d="M193.303 124.512H165.17a1.533 1.533 0 000 3.067h28.133a1.533 1.533 0 100-3.067zm9.403 6.572h-46.938a1.534 1.534 0 000 3.067h46.938a1.533 1.533 0 100-3.067z" fill="#D2D9F1"/><path d="M154.104 18.912h-10.849a1.841 1.841 0 00-1.841 1.841v8.148c0 1.017.824 1.842 1.841 1.842h10.849a1.841 1.841 0 001.841-1.842v-8.148a1.841 1.841 0 00-1.841-1.84z" fill="#ABB8E7"/><path d="M155.913 22.418h-5.917a.46.46 0 00-.461.46v3.46a.46.46 0 00.461.461h5.917a.46.46 0 00.46-.46v-3.461a.46.46 0 00-.46-.46z" fill="#DBE1F4"/><path d="M222.749 30.544c7.953 0 14.4-6.838 14.4-15.272 0-8.435-6.447-15.272-14.4-15.272S208.35 6.837 208.35 15.272c0 8.434 6.446 15.272 14.399 15.272z" fill="#1773FC"/><path fill-rule="evenodd" clip-rule="evenodd" d="M230.692 11.69l-9.506 10.2-5.389-5.782 1.405-1.509 3.984 4.274 8.101-8.692 1.405 1.509z" fill="#fff"/><path opacity=".4" d="M104.051 217.534c23.757 0 43.015-2.514 43.015-5.615 0-3.1-19.258-5.614-43.015-5.614s-43.016 2.514-43.016 5.614c0 3.101 19.259 5.615 43.016 5.615z" fill="url(#paint3_linear_201_2448)"/><path d="M88.574 208.171v-8.223l.578-3.678 4.617.276-2.273 11.625h-2.922zm26.441-2.89l-1.183-11.291 5.169-.498-.254 11.429-3.732.36z" fill="#FCD8E3"/><path d="M87.996 212.046c0-4.429.577-8.857.577-8.857.866.553 2.598.553 3.752 0 0 1.937.577 4.705 1.731 5.259 1.154.553 1.154.553 1.154 1.66 0 1.107-2.02 1.938-2.02 1.938h-5.194zm37.958-3.107c-3.175.831-8.273.738-11.544.554l.187-8.34c2.41.553 4.142-.277 4.142 0 0 .276.866 5.019 4.329 5.849 2.77.664 2.982 1.568 2.886 1.937z" fill="#6885EF"/><path d="M99.828 174.128c0 1.993-4.81 18.686-7.215 26.897-1.847.664-3.944.276-4.617 0l3.463-26.897c-.577-6.642 1.154-27.843 1.154-30.721 0-2.879 1.155-8.396 1.155-10.794h21.643c.866 10.794 7.219 35.298 7.219 38.176 0 2.879-3.026 28.155-3.026 28.155s-4.617.461-5.772 0c0-1.384.329-17.62-1.018-24.816l-9.812-17.159c-.673 4.428-3.174 15.166-3.174 17.159z" fill="#1773FC"/><path d="M138.296 100.457c-.924 1.993-.962 4.889-.865 6.089.769.738 2.308 2.048 2.308 1.384 0-.83 2.597-1.384 3.463-3.598.693-1.772 4.04-6.09 1.732-7.75-.866-1.384-5.484 1.384-6.638 3.875zM83.63 146.669c-.1-2.187.654-4.503.011-5.552-1.029-.353-.588-1.006-2.301-.329-.332.13-2.28 2.863-2.024 5.228.204 1.891-.538 4.49 2.293 5.049 1.425.032 2.148-1.662 2.022-4.396z" fill="#FCD8E3"/><path d="M113.392 122.926c.462 1.106 8.658 13.561 12.698 19.65l1.631-.96-13.175-20.628c-.576.184-1.615.83-1.154 1.938z" fill="#4066EA"/><path d="M100.406 91.65c0 1.771-.673 5.997-1.443 6.643.77 1.107 2.828 3.321 4.906 3.321 2.597 0 5.194-2.491 4.04-3.321-.923-.665-.771-5.535-1.059-6.643-1.539-.738-6.444-1.771-6.444 0z" fill="#FCD8E3"/><path d="M107.292 93.502l-2.843.59c-1.639.222-6.36-6.246-6.841-9.988-.482-3.741-.449-7.806 7.746-8.913 8.194-1.106 5.136 15.088 4.75 16.409-.309 1.056-2.004 1.709-2.812 1.902z" fill="#FCD8E3"/><path d="M93.029 81.584c.395 3.52 5.29 8.319 6.622 9.84 1.526.665 3.728-.418 3.728-.418.566-.992.57-4.93.755-6.212.327-2.264 2.111-5.26 4.162-6.903 3.997-3.203-.451-9.203-.658-11.036-1.822 1.876-2.845 3.105-8.294 3.716-6.31.708-6.809 6.613-6.315 11.013z" fill="#F9759C"/><path d="M82.261 121.563l-2.136 20.21h3.807c1.03-4.217 4.42-13.445 4.855-15.526.435-2.082 3.985-8.335 4.982-10.677 0 1.214.9 6.301.9 10.048 0 4.684-1.879 9.076-1.879 11.938 0 2.863 3.432 4.981 8.055 4.981 4.624 0 15.178-2.878 15.178-4.96V115.57c2.266 3.99 5.182 6.666 8.663 6.666 3.48 0 13.342-8.118 15.699-15.056l-2.991-1.041-12.708 7.771c-2.901-4.511-7.828-13.791-10.438-14.832-3.264-1.301-5.419-1.04-6.507-1.04-1.087 0-.815 2.341-4.35 2.341-3.535 0-3.535-2.342-4.351-2.342-.653 0-4.372 1.041-6.82 2.342-2.447 1.301-9.959 21.184-9.959 21.184z" fill="#B2C3FF"/><path d="M121.613 145.591l-1.295 1.137c-2.892-2.265-10.27-12.651-16.013-24.554-3.886-8.052-6.873-16.799-8.805-23.173.096-.186.303-.219 1.169-.498.866-.279 1.332-.433 1.428-.34.578 2.792 1.51 9.678 8.369 22.887 5.475 10.542 13.127 21.936 15.147 24.541z" fill="#6885EF"/><path d="M121.474 145.344l-1.732.554 2.598 19.373 8.08-1.66-3.752-9.134 1.444-1.106-6.638-8.027z" fill="#4066EA"/><path d="M121.473 145.344l6.349-3.875 6.348 6.642-.792.689 3.39 6.231-6.349 8.58-3.752-9.134 1.443-1.106-6.637-8.027z" fill="#6885EF"/><path d="M36.416 195.31c-19.56-5.386-22.4-11.858-32.826-11.858 4.573-4.941 33.272-14.644 46.852 3.458 13.58 18.102 11.094 24.229 11.094 24.229s-7.558-10.993-25.12-15.829z" fill="#FEC6D7"/><path d="M30.262 175.117C-4.607 151.954.229 110.975.229 110.975c7.636 30.544 50.185 30.371 61.02 56.181 10.835 25.811 0 44.218 0 44.218s3.885-13.095-30.985-36.257z" fill="#6386FF"/><path d="M244.42 132.54c-10.049 15.23-9.197 40.024-7.515 50.517 4.564-12.015 10.339-28.87 22.346-40.175 13.741-12.938 21.218-28.354 25.748-42.176-4.369 10.017-28.018 12.796-40.579 31.834z" fill="#7795FF" fill-opacity=".7"/><path d="M246.575 112.195c-10.049 15.23-9.198 40.023-7.515 50.516 4.563-12.015 10.338-28.87 22.345-40.174 13.741-12.939 19.572-31 20.009-45.462-4.697 1.893-22.279 16.081-34.839 35.12z" fill="#7795FF" fill-opacity=".7"/><path d="M238.145 116.265c-8.576 24.243-4.446 55.105-1.309 67.506 3.229-17.443 11.739-44.222 20.311-60.586 10.667-20.363 16.542-47.669 19.501-67.375-3.286 14.824-27.783 30.151-38.503 60.455z" fill="#6386FF"/><defs><linearGradient id="paint0_linear_201_2448" x1="156.581" y1="31.536" x2="129.261" y2="176.37" gradientUnits="userSpaceOnUse"><stop stop-color="#FEC6D7"/><stop offset="1" stop-color="#6386FF"/></linearGradient><linearGradient id="paint1_linear_201_2448" x1="235.101" y1="181.457" x2="208.771" y2="225.702" gradientUnits="userSpaceOnUse"><stop stop-color="#FFBDD1"/><stop offset="1" stop-color="#7795FF" stop-opacity=".58"/></linearGradient><linearGradient id="paint2_linear_201_2448" x1="179.237" y1="14.53" x2="179.237" y2="145.544" gradientUnits="userSpaceOnUse"><stop stop-color="#D8E1FF"/><stop offset="1" stop-color="#F5F4FF"/></linearGradient><linearGradient id="paint3_linear_201_2448" x1="144.406" y1="210.68" x2="97.372" y2="253.933" gradientUnits="userSpaceOnUse"><stop stop-color="#FFBDD1"/><stop offset="1" stop-color="#7795FF" stop-opacity=".58"/></linearGradient></defs></svg>