<svg width="152" height="33" viewBox="0 0 152 33" fill="none" xmlns="http://www.w3.org/2000/svg">
<g clip-path="url(#clip0_101_1160)">
<path fill-rule="evenodd" clip-rule="evenodd" d="M109.83 0.000660823L141.3 0.000668735C144.867 -0.0517812 152 2.95945 152 16.6804C152 30.4013 144.867 33.9364 141.3 33.9889H110.145C106.683 33.1497 99.7598 28.5131 99.7598 16.6804C99.7598 4.84765 106.473 0.734963 109.83 0.000660823ZM114.085 6.76717H137.213C137.329 6.76581 137.451 6.76333 137.576 6.76076C140.289 6.70531 145.077 6.60743 145.077 16.745C145.077 27.2021 140.801 27.0349 138.042 26.9271C137.746 26.9155 137.467 26.9046 137.213 26.9076H114.316C113.959 26.8385 113.553 26.8068 113.117 26.7729C110.445 26.5648 106.684 26.2718 106.684 16.745C106.684 6.50425 111.254 6.67008 113.566 6.75397C113.755 6.76085 113.929 6.76717 114.085 6.76717Z" fill="#23262F"/>
<path fill-rule="evenodd" clip-rule="evenodd" d="M0 0.157838V33.8307C0 33.8307 35.2464 33.9881 38.5507 33.9881C41.8551 33.9881 46.5756 28.6382 46.5756 22.6589C46.5756 16.4281 40.7536 13.2179 38.0787 13.2179H7.08075V6.76653H45.6315V0.000488281L0 0.157838ZM6.92383 20.1416V26.7503H37.4497C38.5512 26.7503 39.6526 25.6488 39.6526 23.6033C39.6526 21.7109 38.3938 20.299 37.4497 20.299C36.5056 20.299 6.92383 20.1416 6.92383 20.1416Z" fill="#23262F"/>
<path fill-rule="evenodd" clip-rule="evenodd" d="M49.7246 0.000488281V33.6734H56.3333V19.9839H88.7474C91.3699 19.3021 96.5834 16.3963 96.4575 10.2282C96.3316 4.06012 91.5964 0.629888 88.7641 0.000488281H49.7246ZM56.6484 6.92389V13.5326H87.1743C88.2758 13.5326 89.3772 12.4311 89.3772 10.3856C89.3772 8.4932 88.1184 7.08124 87.1743 7.08124C86.2302 7.08124 56.6484 6.92389 56.6484 6.92389Z" fill="#23262F"/>
<path d="M113.396 15.7786C113.396 16.0097 113.315 16.2007 113.151 16.3515C112.987 16.5022 112.765 16.5981 112.484 16.6391V16.6539C112.814 16.6866 113.066 16.7776 113.242 16.9268C113.419 17.0759 113.507 17.2701 113.507 17.5095C113.507 17.8405 113.373 18.102 113.104 18.2937C112.837 18.4855 112.466 18.5814 111.993 18.5814C111.465 18.5814 111.041 18.5167 110.722 18.3872V17.7479C110.876 17.8217 111.056 17.8799 111.262 17.9225C111.471 17.9635 111.665 17.984 111.845 17.984C112.45 17.984 112.752 17.8078 112.752 17.4554C112.752 17.2964 112.655 17.1743 112.46 17.089C112.266 17.0038 111.98 16.9612 111.599 16.9612H111.262V16.3662H111.565C111.945 16.3662 112.222 16.3301 112.396 16.258C112.57 16.1859 112.656 16.0663 112.656 15.8991C112.656 15.7761 112.602 15.6786 112.492 15.6065C112.384 15.5327 112.22 15.4959 112.002 15.4959C111.665 15.4959 111.339 15.5934 111.024 15.7884L110.692 15.2795C110.897 15.1435 111.114 15.0443 111.344 14.982C111.573 14.9181 111.828 14.8861 112.108 14.8861C112.5 14.8861 112.812 14.9681 113.045 15.132C113.279 15.2959 113.396 15.5114 113.396 15.7786ZM116.379 18.5322L116.118 17.6766H114.808L114.547 18.5322H113.726L114.995 14.923H115.926L117.2 18.5322H116.379ZM115.936 17.0374C115.695 16.2621 115.559 15.8237 115.528 15.7221C115.499 15.6204 115.477 15.5401 115.464 15.4811C115.41 15.6909 115.255 16.2097 114.999 17.0374H115.936ZM118.417 16.6293H118.668C118.902 16.6293 119.077 16.5834 119.194 16.4916C119.31 16.3982 119.368 16.2629 119.368 16.0859C119.368 15.9073 119.319 15.7753 119.221 15.6901C119.124 15.6049 118.972 15.5622 118.764 15.5622H118.417V16.6293ZM120.138 16.0589C120.138 16.4457 120.017 16.7416 119.774 16.9464C119.533 17.1513 119.19 17.2538 118.744 17.2538H118.417V18.5322H117.655V14.9378H118.803C119.239 14.9378 119.57 15.032 119.796 15.2205C120.024 15.4074 120.138 15.6868 120.138 16.0589ZM123.017 18.5322L122.756 17.6766H121.446L121.185 18.5322H120.364L121.633 14.923H122.565L123.838 18.5322H123.017ZM122.574 17.0374C122.333 16.2621 122.197 15.8237 122.166 15.7221C122.137 15.6204 122.115 15.5401 122.102 15.4811C122.048 15.6909 121.893 16.2097 121.638 17.0374H122.574ZM125.055 16.317H125.355C125.824 16.317 126.186 16.4121 126.442 16.6022C126.697 16.7924 126.825 17.0612 126.825 17.4087C126.825 18.1577 126.33 18.5322 125.34 18.5322H124.293V14.9378H126.565V15.5672H125.055V16.317ZM125.055 17.9077H125.311C125.568 17.9077 125.757 17.8668 125.876 17.7848C125.996 17.7012 126.056 17.5758 126.056 17.4087C126.056 17.2431 125.995 17.1243 125.874 17.0522C125.753 16.9784 125.544 16.9415 125.249 16.9415H125.055V17.9077ZM130.771 16.7301C130.771 17.3251 130.624 17.7824 130.329 18.102C130.034 18.4216 129.611 18.5814 129.06 18.5814C128.509 18.5814 128.087 18.4216 127.792 18.102C127.497 17.7824 127.349 17.3234 127.349 16.7252C127.349 16.1269 127.497 15.6704 127.792 15.3557C128.088 15.0394 128.513 14.8812 129.065 14.8812C129.617 14.8812 130.04 15.0402 130.331 15.3582C130.625 15.6762 130.771 16.1335 130.771 16.7301ZM128.148 16.7301C128.148 17.1316 128.224 17.4341 128.377 17.6373C128.529 17.8405 128.757 17.9422 129.06 17.9422C129.668 17.9422 129.972 17.5381 129.972 16.7301C129.972 15.9204 129.67 15.5155 129.065 15.5155C128.762 15.5155 128.533 15.618 128.379 15.8229C128.225 16.0261 128.148 16.3285 128.148 16.7301ZM132.903 18.5322H132.141V15.5721H131.165V14.9378H133.879V15.5721H132.903V18.5322ZM137.695 16.7301C137.695 17.3251 137.547 17.7824 137.252 18.102C136.957 18.4216 136.534 18.5814 135.984 18.5814C135.433 18.5814 135.01 18.4216 134.715 18.102C134.42 17.7824 134.272 17.3234 134.272 16.7252C134.272 16.1269 134.42 15.6704 134.715 15.3557C135.012 15.0394 135.436 14.8812 135.988 14.8812C136.541 14.8812 136.963 15.0402 137.255 15.3582C137.548 15.6762 137.695 16.1335 137.695 16.7301ZM135.071 16.7301C135.071 17.1316 135.148 17.4341 135.3 17.6373C135.453 17.8405 135.68 17.9422 135.984 17.9422C136.592 17.9422 136.896 17.5381 136.896 16.7301C136.896 15.9204 136.593 15.5155 135.988 15.5155C135.685 15.5155 135.457 15.618 135.303 15.8229C135.148 16.0261 135.071 16.3285 135.071 16.7301ZM141.37 18.5322H140.505L139.202 16.7104V18.5322H138.44V14.9378H139.202V16.6784L140.49 14.9378H141.302L139.991 16.6637L141.37 18.5322Z" fill="#23262F"/>
</g>
<defs>
<clipPath id="clip0_101_1160">
<rect width="152" height="33" fill="white"/>
</clipPath>
</defs>
</svg>
