<svg width="285" height="239" viewBox="0 0 285 239" fill="none" xmlns="http://www.w3.org/2000/svg">
<path opacity="0.25" d="M45.9887 120.883C72.8218 150.64 95.5181 127.776 121.562 115.32C166.924 93.6262 218.915 147.413 242.249 118.651C259.531 97.3499 244.265 42.4716 207.826 17.0332C176.094 -5.11954 140.561 -4.87665 98.6723 13.1965C54.0591 32.4455 17.1112 88.8587 45.9887 120.883Z" fill="url(#paint0_linear_201_2245)"/>
<path d="M233.067 140.058C231.117 156.61 235.98 178.498 238.786 186.27L237.02 189.675C234.255 179.471 229.085 155.21 231.271 139.804C234.081 120.002 243.382 103.944 248.549 95.5073L249.134 96.5522C244.678 103.422 235.227 121.742 233.067 140.058Z" fill="#F9759C"/>
<path d="M245.627 153.235C235.877 163.081 236.704 179.109 238.336 185.893C242.764 178.125 248.367 167.229 260.017 159.921C273.35 151.556 280.605 141.591 285.001 132.656C280.761 139.131 257.815 140.927 245.627 153.235Z" fill="#7795FF" fill-opacity="0.7"/>
<path d="M247.716 140.083C237.966 149.928 237.118 173.334 238.751 180.118C243.178 172.351 250.279 159.113 262.007 149.56C273.791 139.961 281.097 126.728 281.521 117.379C276.609 125.493 259.904 127.775 247.716 140.083Z" fill="#7795FF" fill-opacity="0.7"/>
<path d="M239.538 142.714C231.217 158.386 235.224 178.338 238.268 186.354C241.402 175.078 249.659 157.766 257.976 147.188C268.326 134.023 271.034 116.059 273.906 103.319C270.717 112.902 249.94 123.124 239.538 142.714Z" fill="#5970C4"/>
<path fill-rule="evenodd" clip-rule="evenodd" d="M279.25 46.6856C275.122 51.7998 267.421 62.9811 264.407 68.8216C267.459 63.9757 274.838 52.8571 279.935 47.1486L279.891 47.0447C282.342 48.8343 283.268 54.8842 279.926 67.2753C276.979 66.7572 273.853 66.5657 271.827 67.0309C273.589 67.1044 276.672 67.4159 279.694 68.119C279.005 70.5917 278.15 73.3073 277.111 76.2814C276.773 77.2467 276.405 78.1835 276.01 79.0921C273.621 77.7075 271.08 76.5821 269.214 76.3073C270.724 76.9715 273.239 78.2516 275.669 79.8536C273.912 83.6687 271.663 86.9748 269.147 89.8212C266.878 88.0251 264.376 86.4524 262.484 85.9012C263.929 86.7882 266.335 88.46 268.585 90.4443C260.287 99.4687 249.335 103.685 243.387 104.778C243.386 103.987 243.372 103.187 243.356 102.372C243.264 97.4335 243.162 91.9494 246.223 84.7882C246.565 83.9872 246.93 83.1824 247.315 82.3755C248.964 83.5313 250.459 85.2679 251.153 86.2236C250.691 84.7822 249.111 82.9667 247.619 81.7492C250.615 75.6345 254.742 69.443 258.994 63.9935C260.406 65.1163 261.639 66.5646 262.25 67.4062C261.856 66.1769 260.649 64.6755 259.377 63.5051C260.135 62.5435 260.896 61.6057 261.654 60.6971C263.205 61.8475 264.588 63.4608 265.246 64.3688C264.822 63.0427 263.451 61.4007 262.073 60.1984C268.353 52.7522 274.379 47.3514 276.921 46.6288C277.753 46.3919 278.546 46.3984 279.25 46.6856Z" fill="#EE7298"/>
<path d="M226.337 33.1004V143.218H224.565L169.617 107.767L169.174 0.751953H171.611L226.337 33.1004Z" fill="#213375"/>
<path d="M167.844 108.654L169.173 0.751953L224.564 33.9868V143.218L167.844 108.654Z" fill="#3E5193"/>
<path d="M214.816 40.6338V150.751H213.043L158.095 115.301L157.652 8.28516H160.089L214.816 40.6338Z" fill="#4F70E4"/>
<path d="M156.322 116.187L157.652 8.28516L213.043 41.5197V150.751L156.322 116.187Z" fill="#6785EF"/>
<path d="M203.294 48.6101V158.727H201.522L146.574 123.277L146.131 16.2615H148.568L203.294 48.6101Z" fill="#B2C3FF"/>
<path d="M144.801 124.164L146.13 16.2615L201.521 49.496V158.727L144.801 124.164Z" fill="#E8EDFF"/>
<path d="M149.232 44.4003V26.2319L198.198 54.8136V73.8684L149.232 44.4003Z" fill="white" fill-opacity="0.3"/>
<path d="M156.016 45.2147C157.789 45.1654 159.156 42.6295 159.07 39.5508C158.985 36.4721 157.478 34.0163 155.706 34.0657C153.933 34.115 152.566 36.6508 152.651 39.7296C152.737 42.8083 154.244 45.2641 156.016 45.2147Z" fill="white"/>
<path d="M161.641 39.5257V37.9751L177.371 47.502V49.0531L161.641 39.5257Z" fill="#B2C3FF"/>
<path d="M161.641 47.2806V45.7295L170.503 51.2688V52.8193L161.641 47.2806Z" fill="#B2C3FF"/>
<path d="M161.641 43.2926V41.7415L182.246 54.3706V55.9217L161.641 43.2926Z" fill="#B2C3FF"/>
<path d="M190.355 59.4982L190 61.3971L191.95 65.0056L195.318 59.4982L195.14 57.0293L191.95 62.7265L190.355 59.4982Z" fill="#6785EF"/>
<path d="M149.232 66.3349V48.1665L198.198 76.7482V95.803L149.232 66.3349Z" fill="white" fill-opacity="0.3"/>
<path d="M156.016 67.1495C157.789 67.1002 159.156 64.5644 159.07 61.4856C158.985 58.4069 157.478 55.9511 155.706 56.0005C153.933 56.0498 152.566 58.5856 152.651 61.6644C152.737 64.7431 154.244 67.1989 156.016 67.1495Z" fill="white"/>
<path d="M161.641 61.4605V59.9099L177.371 69.4368V70.9879L161.641 61.4605Z" fill="#B2C3FF"/>
<path d="M161.641 69.2154V67.6643L170.503 73.2036V74.7542L161.641 69.2154Z" fill="#B2C3FF"/>
<path d="M161.641 65.2274V63.6763L182.246 76.3054V77.8565L161.641 65.2274Z" fill="#B2C3FF"/>
<path d="M190.355 81.433L190 83.3319L191.95 86.9404L195.318 81.433L195.14 78.9641L191.95 84.6613L190.355 81.433Z" fill="#6785EF"/>
<path d="M149.232 88.9342V70.7659L198.198 99.3481V118.402L149.232 88.9342Z" fill="white" fill-opacity="0.3"/>
<path d="M156.016 89.7491C157.789 89.6998 159.156 87.164 159.07 84.0852C158.985 81.0065 157.478 78.5507 155.706 78.6001C153.933 78.6494 152.566 81.1853 152.651 84.264C152.737 87.3427 154.244 89.7985 156.016 89.7491Z" fill="white"/>
<path d="M161.641 84.0604V82.5093L177.371 92.0367V93.5873L161.641 84.0604Z" fill="#B2C3FF"/>
<path d="M161.641 91.8148V90.2637L170.503 95.8029V97.3541L161.641 91.8148Z" fill="#B2C3FF"/>
<path d="M161.641 87.8267V86.2756L182.246 98.9047V100.456L161.641 87.8267Z" fill="#B2C3FF"/>
<path d="M190.355 104.032L190 105.932L191.95 109.54L195.318 104.032L195.14 101.563L191.95 107.261L190.355 104.032Z" fill="#6785EF"/>
<path d="M149.232 111.534V93.366L198.198 121.948V141.002L149.232 111.534Z" fill="white" fill-opacity="0.3"/>
<path d="M156.016 112.349C157.789 112.299 159.156 109.763 159.07 106.685C158.985 103.606 157.478 101.15 155.706 101.199C153.933 101.249 152.566 103.785 152.651 106.863C152.737 109.942 154.244 112.398 156.016 112.349Z" fill="#C4C4C4"/>
<path d="M161.641 106.66V105.109L177.371 114.636V116.187L161.641 106.66Z" fill="#B2C3FF"/>
<path d="M161.641 114.414V112.863L170.503 118.403V119.954L161.641 114.414Z" fill="#B2C3FF"/>
<path d="M161.641 110.426V108.875L182.246 121.504V123.055L161.641 110.426Z" fill="#B2C3FF"/>
<path d="M190.355 126.632L190 128.531L191.95 132.14L195.318 126.632L195.14 124.163L191.95 129.861L190.355 126.632Z" fill="#C4C4C4"/>
<path d="M196.758 145.753C202.222 145.601 206.449 138.173 206.198 129.163C205.947 120.153 201.314 112.973 195.849 113.125C190.385 113.277 186.158 120.704 186.409 129.714C186.66 138.724 191.293 145.905 196.758 145.753Z" fill="#2135BC"/>
<path d="M195.043 145.753C200.508 145.601 204.734 138.173 204.483 129.163C204.232 120.153 199.599 112.973 194.135 113.125C188.67 113.277 184.444 120.704 184.694 129.714C184.945 138.724 189.579 145.905 195.043 145.753Z" fill="#1773FC"/>
<path d="M193.199 136.004V122.267L194.75 123.153V136.89L193.199 136.004Z" fill="white"/>
<path d="M189.654 128.027V126.255L198.961 132.016V133.566L189.654 128.027Z" fill="white"/>
<path opacity="0.25" d="M78.1513 200.767C101.3 200.767 120.066 193.14 120.066 183.731C120.066 174.322 101.3 166.695 78.1513 166.695C55.0023 166.695 36.2363 174.322 36.2363 183.731C36.2363 193.14 55.0023 200.767 78.1513 200.767Z" fill="url(#paint1_linear_201_2245)"/>
<path d="M57.0625 134.577C57.063 133.323 57.6536 131.327 58.3924 129.259V126.601H61.0512C61.0512 127.486 60.7851 129.614 61.4941 130.146C62.2032 130.677 62.8235 136.128 62.8235 137.236C62.8235 138.343 61.4941 136.793 61.4941 136.793C61.3167 139.628 59.943 139.451 58.8354 139.451C57.2842 139.451 57.0625 135.906 57.0625 134.577Z" fill="#FCD8E3"/>
<path d="M128.724 57.7595L125.305 60.6952L127.747 64.1192L129.945 61.4286C130.596 60.858 132.094 59.7163 132.876 59.7163C133.853 59.7163 136.539 56.2922 137.76 54.3349C138.981 52.3782 137.027 47.9752 136.539 47.7308C136.051 47.4863 131.166 53.6016 130.922 54.3349C130.727 54.9223 129.375 56.8628 128.724 57.7595Z" fill="#FCD8E3"/>
<path d="M69.4698 152.745L64.374 173.129C64.0782 173.646 63.665 174.99 64.374 176.231C65.0831 177.472 68.0663 176.748 69.4698 176.231L78.5537 152.745L84.3147 134.577L89.8535 146.763L87.1947 172.243H91.6263L100.267 146.763L92.734 118.181C90.8876 118.624 85.7328 119.732 84.3147 120.618C82.8967 121.504 76.3385 120.988 73.2362 120.618L69.4698 152.745Z" fill="#1773FC"/>
<path d="M86.3086 176.895L87.1945 172.021C89.499 172.73 91.4044 171.726 91.8473 171.135C92.7338 173.262 97.5342 175.418 100.267 176.231L99.8236 178.668C98.4207 178.816 95.9685 179.022 93.8414 178.668C91.7143 178.313 87.7856 177.339 86.3086 176.895Z" fill="#96888C"/>
<path d="M57.7261 110.648L57.2832 128.595H62.379L66.3671 112.863L73.014 101.342L74.3434 108.432C74.3434 110.028 73.4575 117.516 73.014 121.061C74.1222 121.283 77.357 121.815 81.4338 122.169C85.5106 122.524 91.8471 119.363 94.5059 117.738C94.5059 115.966 93.3982 105.773 94.5059 104.222C95.614 102.672 95.614 94.6954 96.057 91.1503C96.4112 88.3141 107.578 83.4693 110.458 81.6228L129.513 64.1191C129.336 62.8785 126.78 60.3528 125.525 59.2451L122.866 61.2392L104.698 72.9819L90.0748 79.6288C89.336 81.6969 87.6378 84.9906 84.979 85.168C82.3202 85.3454 79.5874 83.6169 78.775 82.0658L66.3671 89.8209L57.7261 110.648Z" fill="#384FAB"/>
<path d="M81.6565 76.3052C81.6565 77.369 81.3607 80.3674 80.9918 81.1798C82.0995 82.2138 84.7139 84.1928 86.3094 83.8385C87.9043 83.4837 88.5987 80.2933 88.7464 78.7427C88.2147 77.6789 88.5246 75.9358 88.7464 75.1976C88.9238 74.1337 90.7404 72.5388 91.6269 71.8741C92.0698 70.5447 89.6328 64.7837 89.4111 64.119C89.1893 63.4543 88.9681 59.6879 84.3153 58.8015C79.6624 57.9156 77.0037 61.9037 76.3385 63.6761C75.6738 65.4484 76.3385 70.5447 79.219 73.2035C81.5235 75.3306 81.6565 75.7881 81.6565 76.3052Z" fill="#FCD8E3"/>
<path d="M78.332 83.1739L80.1049 80.5151L85.6442 82.0657L88.7459 78.2993L90.297 80.5151L88.7459 84.9462L87.6382 83.9175C87.49 84.0387 87.0617 84.3702 86.5301 84.7245C85.9984 85.0793 85.1736 85.168 84.8275 85.168L84.536 86.2756L78.332 83.1739Z" fill="#A4B6F5"/>
<path d="M74.3432 66.1133C74.8754 68.9494 78.7007 72.9078 80.5472 74.533C79.6607 72.9376 79.4395 69.1414 79.4395 67.4426C79.0847 65.4929 80.326 63.0856 80.9907 62.1251C82.2313 61.0618 85.7911 61.0916 87.4158 61.2392C88.3022 61.2392 88.9669 60.0575 89.1881 59.4664C90.0746 56.5864 86.5294 55.4782 84.0924 54.3706C81.6553 53.2629 77.2237 57.9158 75.8943 58.8017C74.5649 59.6881 73.6785 62.5686 74.3432 66.1133Z" fill="#3C56C6"/>
<path d="M64.9485 191.656C62.1286 191.311 61.399 185.952 62.1897 183.151C62.9804 180.349 63.4412 177.995 64.0259 175.471C64.2254 175.671 64.9761 176.115 66.3861 176.288C67.7966 176.46 68.7787 176.23 69.094 176.093C68.8074 178.429 69.5613 179.575 69.8085 183.031C70.0562 186.486 68.4743 192.089 64.9485 191.656Z" fill="#96888C"/>
<path opacity="0.25" d="M146.298 238.085C169.447 238.085 188.213 230.458 188.213 221.049C188.213 211.64 169.447 204.012 146.298 204.012C123.149 204.012 104.383 211.64 104.383 221.049C104.383 230.458 123.149 238.085 146.298 238.085Z" fill="url(#paint2_linear_201_2245)"/>
<path d="M148.171 180.5C147.09 177.107 145.602 168.353 145.184 162.819L158.487 161.827V189.715L154.398 216.848C153.541 217.653 152.692 217.615 151.91 217.181C151.358 214.109 148.819 204.151 148.499 201.045C148.18 197.938 150.204 191.847 151.256 189.189C151.287 188.826 149.252 183.893 148.171 180.5Z" fill="#FCD8E3"/>
<path d="M138.194 171.435C137.578 168.249 137.43 159.718 137.751 154.746H149.001L145.486 178.576L137.845 203.31C136.894 203.88 135.863 203.581 135.15 203.065C135.013 200.253 135.038 191.421 135.135 188.616C135.231 185.811 138.032 180.754 139.42 178.576C139.5 178.259 138.81 174.621 138.194 171.435Z" fill="#FCD8E3"/>
<path d="M154.663 214.723C153.537 215.391 151.902 214.65 151.225 214.195C150.63 217.373 149.661 223.973 150.535 224.947C151.628 226.166 155.537 225.715 158.403 225.804C160.695 225.876 162.635 225.589 163.036 225.067C163.162 224.246 162.846 223.52 162.673 223.26C161.995 223.506 160.804 222.67 159.293 222.088C156.59 221.047 155.113 216.66 154.663 214.723Z" fill="#E1A7B9"/>
<path d="M138.469 201.595C136.971 202.487 135.706 201.967 135.26 201.595C134.904 204.565 134.244 210.784 134.458 211.897C134.725 213.289 135.26 213.847 137.399 213.847C139.538 213.847 142.747 212.176 142.747 211.34C142.747 210.672 142.212 209.577 141.945 209.113C140.875 209.559 140.073 208.556 139.806 208C139.164 207.554 138.647 203.545 138.469 201.595Z" fill="#E1A7B9"/>
<path d="M137.112 149.929C137.112 145.42 139.317 140.834 140.787 139.364L142.258 138.139C147.403 138.303 159.006 133.433 157.156 141.079C156.516 143.726 156.829 147.219 157.156 148.036C158.465 157.571 159.547 164.802 162.792 173.455C161.812 174.827 156.647 177.108 152.246 177.782C141.508 179.424 135.751 174.659 133.358 172.678L133.316 172.644C133.316 172.644 134.349 168.394 134.939 165.613C136.65 157.544 137.112 155.564 137.112 149.929Z" fill="#3C56C6"/>
<path d="M131.833 140.858V138.874H134.515V141.141C134.515 141.424 134.729 142.388 135.588 143.974C136.446 145.561 135.23 148.413 134.783 149.641C134.354 150.774 133.174 149.735 132.637 149.074C132.637 148.224 131.297 145.674 131.028 144.541C130.814 143.634 131.475 141.708 131.833 140.858Z" fill="#FCD8E3"/>
<path d="M186.641 129.17C185.551 129.389 182.733 131.443 181.461 132.444L182.279 135.444C183.37 135.171 185.987 134.626 187.732 134.626C189.477 134.626 190.277 133.717 190.458 133.262C190.913 131.898 191.658 129.007 191.003 128.352C190.186 127.534 188.005 128.898 186.641 129.17Z" fill="#FCD8E3"/>
<path d="M150.049 107.768C148.632 109.717 147.908 109.688 147.391 109.54V112.42C147.391 112.864 149.163 114.636 151.822 116.187C153.949 117.428 157.435 115.079 158.912 113.75C157.317 113.041 155.589 110.648 156.918 107.768C156.918 107.768 158.247 107.546 158.912 106.216C159.577 104.887 160.951 102.805 162.014 98.9049C163.344 94.0309 159.134 90.4857 155.589 89.821C152.043 89.1563 149.696 91.5549 148.72 94.9168C147.973 97.4944 148.255 100.962 150.049 103.115C151.158 104.444 151.467 105.818 150.049 107.768Z" fill="#FCD8E3"/>
<path d="M141.08 132.655C141.941 136.1 139.365 141.533 139.365 141.533C144.756 147.659 155.046 147.424 156.026 145.954C157.006 144.484 157.157 141.252 157.892 136.784C157.892 136.784 160.465 129.319 159.118 126.624C161.078 130.544 166.515 138.139 169.7 140.099C170.572 140.636 183.421 135.444 183.421 135.444C183.617 133.68 182.604 132.994 181.951 131.769L169.851 133.239C169.851 133.239 167.322 129.059 165.243 120.743C164.018 115.843 159.819 117.749 158.674 112.903C158.103 114.291 154.019 115.941 151.079 114.373C148.139 112.805 149.027 111.565 149.272 110.177C149.272 110.177 149.002 111.298 145.757 111.529C143.844 111.665 142.311 111.19 140.078 112.611C137.383 114.326 133.628 120.65 132.271 127.755C131.522 131.675 131.921 140.986 131.921 140.986C131.921 140.986 135.106 142.946 135.106 139.761C135.596 138.29 136.436 131.185 136.436 131.185C136.436 131.185 138.046 126.285 140.742 121.63C140.742 125.55 140.1 128.735 141.08 132.655Z" fill="#FFBDD1"/>
<path d="M146.895 96.1838C147.627 91.4255 151.924 88.4054 153.981 87.4909C154.972 87.0333 157.776 86.7586 161.067 89.3205C164.359 91.883 163.353 96.3363 162.439 98.2422C160.976 100.805 160.61 108.46 160.61 111.968C159.147 109.772 159.238 104.495 159.467 102.131C158.324 105.105 159.01 108.079 159.01 109.909C159.01 111.739 161.296 118.373 160.61 118.831C160.062 119.197 157.943 120.051 156.953 120.432L156.039 111.968V120.89C155.353 121.576 151.696 121.805 150.781 121.805C150.05 121.805 150.477 117.839 150.781 115.857L149.639 120.89C146.713 121.073 143.848 118.373 142.781 117.001C144.381 115.4 145.981 102.131 146.895 96.1838Z" fill="#3C56C6"/>
<mask id="mask0_201_2245" style="mask-type:alpha" maskUnits="userSpaceOnUse" x="3" y="148" width="42" height="29">
<path d="M44.3517 172.8C42.2219 177.951 31.4302 177.583 20.2478 171.978C9.06537 166.374 1.72676 157.655 3.85655 152.504C5.98635 147.354 16.778 147.722 27.9605 153.327C39.1429 158.931 46.4815 167.65 44.3517 172.8Z" fill="#F4A0D7"/>
</mask>
<g mask="url(#mask0_201_2245)">
<path d="M41.5314 179.624C39.4016 184.774 28.6099 184.406 17.4275 178.802C6.24506 173.197 -1.09356 164.478 1.03624 159.328C3.16604 154.177 13.9577 154.546 25.1402 160.15C36.3226 165.755 43.6612 174.473 41.5314 179.624Z" fill="#BECCFF"/>
</g>
<mask id="mask1_201_2245" style="mask-type:alpha" maskUnits="userSpaceOnUse" x="15" y="134" width="32" height="42">
<path d="M44.8154 174.466C40.7388 177.913 31.3668 172.011 23.8825 161.284C16.3982 150.556 13.6358 139.066 17.7124 135.618C21.789 132.171 31.161 138.073 38.6453 148.8C46.1296 159.528 48.8921 171.019 44.8154 174.466Z" fill="#C4C4C4"/>
</mask>
<g mask="url(#mask1_201_2245)">
<path d="M39.4131 179.033C35.3365 182.48 25.9645 176.578 18.4802 165.851C10.9959 155.123 8.23342 143.633 12.31 140.185C16.3867 136.738 25.7586 142.64 33.2429 153.367C40.7272 164.095 43.4897 175.586 39.4131 179.033Z" fill="#8FA6F9"/>
</g>
<mask id="mask2_201_2245" style="mask-type:alpha" maskUnits="userSpaceOnUse" x="33" y="134" width="18" height="43">
<path d="M44.4537 176.966C40.0315 177.562 35.3987 168.611 34.1059 156.974C32.8132 145.338 35.3501 135.421 39.7722 134.826C44.1944 134.23 48.8273 143.181 50.12 154.818C51.4128 166.455 48.8759 176.371 44.4537 176.966Z" fill="#8D8D8D"/>
</mask>
<g mask="url(#mask2_201_2245)">
<path d="M38.5943 177.755C34.1722 178.35 29.5393 169.399 28.2465 157.763C26.9538 146.126 29.4907 136.21 33.9129 135.614C38.335 135.019 42.9679 143.97 44.2607 155.606C45.5534 167.243 43.0165 177.159 38.5943 177.755Z" fill="#6785EF"/>
</g>
<defs>
<linearGradient id="paint0_linear_201_2245" x1="242.756" y1="52.7935" x2="34.6716" y2="92.1649" gradientUnits="userSpaceOnUse">
<stop stop-color="#FFBDD1"/>
<stop offset="1" stop-color="#7795FF" stop-opacity="0.58"/>
</linearGradient>
<linearGradient id="paint1_linear_201_2245" x1="117.475" y1="179.97" x2="39.6701" y2="202.946" gradientUnits="userSpaceOnUse">
<stop stop-color="#FFBDD1"/>
<stop offset="1" stop-color="#7795FF" stop-opacity="0.58"/>
</linearGradient>
<linearGradient id="paint2_linear_201_2245" x1="185.621" y1="217.288" x2="107.817" y2="240.264" gradientUnits="userSpaceOnUse">
<stop stop-color="#FFBDD1"/>
<stop offset="1" stop-color="#7795FF" stop-opacity="0.58"/>
</linearGradient>
</defs>
</svg>
