<svg width="285" height="221" viewBox="0 0 285 221" fill="none" xmlns="http://www.w3.org/2000/svg">
<path opacity="0.25" d="M47.3455 90.8992C77.2406 78.896 168.442 62.1427 242.959 85.9557C278.317 97.2547 296.089 117.289 277.563 137.037C257.927 157.966 150.684 174.374 86.8921 159.399C-8.44351 137.02 24.3067 100.149 47.3455 90.8992Z" fill="url(#paint0_linear_201_2355)"/>
<path fill-rule="evenodd" clip-rule="evenodd" d="M243.414 38.9592C242.814 38.4965 242.306 37.9363 242.387 37.4406C243.201 36.9099 244.134 35.3167 243.437 33.1933C242.566 30.5387 240.648 29.4767 239.603 30.3616C238.557 31.2465 237.685 36.3787 240.3 37.4406C240.981 37.9348 242.258 38.9181 242.736 39.4737C242.361 39.8385 242.015 40.3246 241.742 40.9279C241.01 42.5449 241.926 43.446 242.608 43.9149C242.646 44.2604 242.352 44.7317 241.956 45.1448C240.993 43.1533 239.399 42.4262 238.48 43.204C237.434 44.0889 236.562 49.2216 239.177 50.283C239.99 50.8731 241.125 52.4785 241.264 52.9032C241.404 53.3284 242.655 53.0802 243.003 52.9032C242.19 52.4907 241.125 51.1329 241.264 50.283C242.065 49.7609 242.981 48.2114 242.347 46.1392C242.924 45.5197 243.767 44.7221 244.248 44.4583C246.599 43.7982 246.128 39.7239 245.262 38.9623C244.806 38.5614 244.107 38.5675 243.414 38.9592Z" fill="#F9759C"/>
<path d="M114.493 57.136C115.391 58.7383 116.601 61.6969 116.951 61.7674C110.355 61.2601 105.028 52.1271 107.686 48.2512C103.252 48.2512 99.7955 43.0023 98.4316 42.7405C104.363 41.8628 111.773 42.7502 113.194 48.0605C114.615 53.3712 113.595 55.5342 114.493 57.136Z" fill="#6885EF" fill-opacity="0.5"/>
<path d="M111.576 42.1509C115.012 34.4529 121.626 31.439 124.716 29.6226C125.008 31.3294 124.739 32.745 123.843 36.0587C122.947 39.3725 120.837 43.2798 116.955 45.3804C121.217 49.3349 114.984 60.6344 114.403 61.7938C114.402 61.8247 114.395 61.8491 114.382 61.8668C114.346 61.915 114.356 61.8876 114.403 61.7938C114.448 60.7024 107.398 51.5081 111.576 42.1509Z" fill="#6885EF"/>
<path opacity="0.4" d="M37.2306 184.12C57.7926 184.12 74.4613 180.787 74.4613 176.674C74.4613 172.562 57.7926 169.228 37.2306 169.228C16.6687 169.228 0 172.562 0 176.674C0 180.787 16.6687 184.12 37.2306 184.12Z" fill="url(#paint1_linear_201_2355)"/>
<path d="M35.1992 169.971H74.2404V176.479C74.2404 176.479 71.8745 178.845 54.7198 178.845C37.5657 178.845 35.1992 176.479 35.1992 176.479V169.971Z" fill="url(#paint2_linear_201_2355)"/>
<path d="M54.7197 172.929C65.5006 172.929 74.2402 171.605 74.2402 169.971C74.2402 168.338 65.5006 167.014 54.7197 167.014C43.9388 167.014 35.1992 168.338 35.1992 169.971C35.1992 171.605 43.9388 172.929 54.7197 172.929Z" fill="#F9AEC5"/>
<path d="M35.1992 162.898H74.2404V169.405C74.2404 169.405 71.8745 171.771 54.7198 171.771C37.5657 171.771 35.1992 169.405 35.1992 169.405V162.898Z" fill="url(#paint3_linear_201_2355)"/>
<path d="M54.7197 165.856C65.5006 165.856 74.2402 164.532 74.2402 162.898C74.2402 161.265 65.5006 159.941 54.7197 159.941C43.9388 159.941 35.1992 161.265 35.1992 162.898C35.1992 164.532 43.9388 165.856 54.7197 165.856Z" fill="#F9AEC5"/>
<path d="M35.1992 156.065H74.2404V162.572C74.2404 162.572 71.8745 164.939 54.7198 164.939C37.5657 164.939 35.1992 162.572 35.1992 162.572V156.065Z" fill="url(#paint4_linear_201_2355)"/>
<path d="M54.7197 159.023C65.5006 159.023 74.2402 157.699 74.2402 156.065C74.2402 154.432 65.5006 153.108 54.7197 153.108C43.9388 153.108 35.1992 154.432 35.1992 156.065C35.1992 157.699 43.9388 159.023 54.7197 159.023Z" fill="#F9AEC5"/>
<path d="M35.1992 149.233H74.2404V155.74C74.2404 155.74 71.8745 158.106 54.7198 158.106C37.5657 158.106 35.1992 155.74 35.1992 155.74V149.233Z" fill="url(#paint5_linear_201_2355)"/>
<path d="M54.7197 152.191C65.5006 152.191 74.2402 150.867 74.2402 149.234C74.2402 147.6 65.5006 146.276 54.7197 146.276C43.9388 146.276 35.1992 147.6 35.1992 149.234C35.1992 150.867 43.9388 152.191 54.7197 152.191Z" fill="#F9AEC5"/>
<path d="M38.127 142.401H77.1681V148.908C77.1681 148.908 74.8017 151.274 57.6476 151.274C40.4929 151.274 38.127 148.908 38.127 148.908V142.401Z" fill="url(#paint6_linear_201_2355)"/>
<path d="M57.6475 145.359C68.4283 145.359 77.1679 144.035 77.1679 142.401C77.1679 140.768 68.4283 139.444 57.6475 139.444C46.8666 139.444 38.127 140.768 38.127 142.401C38.127 144.035 46.8666 145.359 57.6475 145.359Z" fill="#F9AEC5"/>
<path opacity="0.4" d="M25.0004 89.9089C36.0959 89.9089 45.0906 88.11 45.0906 85.8909C45.0906 83.6717 36.0959 81.8728 25.0004 81.8728C13.9049 81.8728 4.91016 83.6717 4.91016 85.8909C4.91016 88.11 13.9049 89.9089 25.0004 89.9089Z" fill="url(#paint7_linear_201_2355)"/>
<path d="M23.9043 82.2742H44.9714V85.7853C44.9714 85.7853 43.6948 87.0618 34.4381 87.0618C25.1809 87.0618 23.9043 85.7853 23.9043 85.7853V82.2742Z" fill="url(#paint8_linear_201_2355)"/>
<path d="M34.4378 83.8702C40.2554 83.8702 44.9714 83.1557 44.9714 82.2742C44.9714 81.3928 40.2554 80.6782 34.4378 80.6782C28.6203 80.6782 23.9043 81.3928 23.9043 82.2742C23.9043 83.1557 28.6203 83.8702 34.4378 83.8702Z" fill="#F9AEC5"/>
<path d="M23.9043 78.4563H44.9714V81.9679C44.9714 81.9679 43.6948 83.2445 34.4381 83.2445C25.1809 83.2445 23.9043 81.9679 23.9043 81.9679V78.4563Z" fill="url(#paint9_linear_201_2355)"/>
<path d="M34.4378 80.0528C40.2554 80.0528 44.9714 79.3383 44.9714 78.4568C44.9714 77.5754 40.2554 76.8608 34.4378 76.8608C28.6203 76.8608 23.9043 77.5754 23.9043 78.4568C23.9043 79.3383 28.6203 80.0528 34.4378 80.0528Z" fill="#F9AEC5"/>
<path d="M23.9043 74.77H44.9714V78.2816C44.9714 78.2816 43.6948 79.5582 34.4381 79.5582C25.1809 79.5582 23.9043 78.2816 23.9043 78.2816V74.77Z" fill="url(#paint10_linear_201_2355)"/>
<path d="M34.4378 76.3658C40.2554 76.3658 44.9714 75.6513 44.9714 74.7698C44.9714 73.8884 40.2554 73.1738 34.4378 73.1738C28.6203 73.1738 23.9043 73.8884 23.9043 74.7698C23.9043 75.6513 28.6203 76.3658 34.4378 76.3658Z" fill="#F9AEC5"/>
<path d="M23.9043 71.0835H44.9714V74.5946C44.9714 74.5946 43.6948 75.8717 34.4381 75.8717C25.1809 75.8717 23.9043 74.5946 23.9043 74.5946V71.0835Z" fill="url(#paint11_linear_201_2355)"/>
<path d="M34.4378 72.6796C40.2554 72.6796 44.9714 71.965 44.9714 71.0835C44.9714 70.2021 40.2554 69.4875 34.4378 69.4875C28.6203 69.4875 23.9043 70.2021 23.9043 71.0835C23.9043 71.965 28.6203 72.6796 34.4378 72.6796Z" fill="#F9AEC5"/>
<path d="M24.0098 67.3965H45.0769V70.9076C45.0769 70.9076 43.8003 72.1847 34.5436 72.1847C25.2869 72.1847 24.0098 70.9076 24.0098 70.9076V67.3965Z" fill="url(#paint12_linear_201_2355)"/>
<path d="M34.5453 68.9925C40.3628 68.9925 45.0788 68.278 45.0788 67.3965C45.0788 66.5151 40.3628 65.8005 34.5453 65.8005C28.7278 65.8005 24.0117 66.5151 24.0117 67.3965C24.0117 68.278 28.7278 68.9925 34.5453 68.9925Z" fill="#F9AEC5"/>
<path opacity="0.4" d="M115.336 69.289C126.432 69.289 135.427 67.4901 135.427 65.271C135.427 63.0519 126.432 61.2529 115.336 61.2529C104.241 61.2529 95.2461 63.0519 95.2461 65.271C95.2461 67.4901 104.241 69.289 115.336 69.289Z" fill="url(#paint13_linear_201_2355)"/>
<path d="M114.238 61.6543H135.305V65.1654C135.305 65.1654 134.029 66.442 124.772 66.442C115.515 66.442 114.238 65.1654 114.238 65.1654V61.6543Z" fill="url(#paint14_linear_201_2355)"/>
<path d="M124.772 63.2504C130.589 63.2504 135.305 62.5358 135.305 61.6543C135.305 60.7729 130.589 60.0583 124.772 60.0583C118.954 60.0583 114.238 60.7729 114.238 61.6543C114.238 62.5358 118.954 63.2504 124.772 63.2504Z" fill="#F9AEC5"/>
<path d="M114.238 57.8369H135.305V61.348C135.305 61.348 134.029 62.6246 124.772 62.6246C115.515 62.6246 114.238 61.348 114.238 61.348V57.8369Z" fill="url(#paint15_linear_201_2355)"/>
<path d="M124.772 59.433C130.589 59.433 135.305 58.7184 135.305 57.837C135.305 56.9555 130.589 56.241 124.772 56.241C118.954 56.241 114.238 56.9555 114.238 57.837C114.238 58.7184 118.954 59.433 124.772 59.433Z" fill="#F9AEC5"/>
<path d="M114.238 54.1499H135.305V57.6615C135.305 57.6615 134.029 58.9381 124.772 58.9381C115.515 58.9381 114.238 57.6615 114.238 57.6615V54.1499Z" fill="url(#paint16_linear_201_2355)"/>
<path d="M124.772 55.7459C130.589 55.7459 135.305 55.0314 135.305 54.15C135.305 53.2685 130.589 52.554 124.772 52.554C118.954 52.554 114.238 53.2685 114.238 54.15C114.238 55.0314 118.954 55.7459 124.772 55.7459Z" fill="#F9AEC5"/>
<path d="M114.238 50.4631H135.305V53.9742C135.305 53.9742 134.029 55.2513 124.772 55.2513C115.515 55.2513 114.238 53.9742 114.238 53.9742V50.4631Z" fill="url(#paint17_linear_201_2355)"/>
<path d="M124.772 52.0589C130.589 52.0589 135.305 51.3444 135.305 50.4629C135.305 49.5815 130.589 48.8669 124.772 48.8669C118.954 48.8669 114.238 49.5815 114.238 50.4629C114.238 51.3444 118.954 52.0589 124.772 52.0589Z" fill="#F9AEC5"/>
<path d="M111.891 46.7766H132.958V50.2877C132.958 50.2877 131.681 51.5648 122.424 51.5648C113.168 51.5648 111.891 50.2877 111.891 50.2877V46.7766Z" fill="url(#paint18_linear_201_2355)"/>
<path d="M122.424 48.3727C128.242 48.3727 132.958 47.6581 132.958 46.7767C132.958 45.8952 128.242 45.1807 122.424 45.1807C116.607 45.1807 111.891 45.8952 111.891 46.7767C111.891 47.6581 116.607 48.3727 122.424 48.3727Z" fill="#F9AEC5"/>
<path opacity="0.4" d="M245.875 60.4895C256.971 60.4895 265.966 58.6905 265.966 56.4714C265.966 54.2523 256.971 52.4534 245.875 52.4534C234.78 52.4534 225.785 54.2523 225.785 56.4714C225.785 58.6905 234.78 60.4895 245.875 60.4895Z" fill="url(#paint19_linear_201_2355)"/>
<path d="M244.779 52.8547H265.846V56.3658C265.846 56.3658 264.569 57.6429 255.313 57.6429C246.056 57.6429 244.779 56.3658 244.779 56.3658V52.8547Z" fill="url(#paint20_linear_201_2355)"/>
<path d="M255.313 54.4508C261.13 54.4508 265.846 53.7362 265.846 52.8548C265.846 51.9733 261.13 51.2588 255.313 51.2588C249.495 51.2588 244.779 51.9733 244.779 52.8548C244.779 53.7362 249.495 54.4508 255.313 54.4508Z" fill="#F9AEC5"/>
<path d="M244.779 49.0381H265.846V52.5492C265.846 52.5492 264.569 53.8258 255.313 53.8258C246.056 53.8258 244.779 52.5492 244.779 52.5492V49.0381Z" fill="url(#paint21_linear_201_2355)"/>
<path d="M255.313 50.6339C261.13 50.6339 265.846 49.9193 265.846 49.0379C265.846 48.1564 261.13 47.4419 255.313 47.4419C249.495 47.4419 244.779 48.1564 244.779 49.0379C244.779 49.9193 249.495 50.6339 255.313 50.6339Z" fill="#F9AEC5"/>
<path d="M244.779 45.3516H265.846V48.8627C265.846 48.8627 264.569 50.1392 255.313 50.1392C246.056 50.1392 244.779 48.8627 244.779 48.8627V45.3516Z" fill="url(#paint22_linear_201_2355)"/>
<path d="M255.313 46.9471C261.13 46.9471 265.846 46.2326 265.846 45.3511C265.846 44.4697 261.13 43.7551 255.313 43.7551C249.495 43.7551 244.779 44.4697 244.779 45.3511C244.779 46.2326 249.495 46.9471 255.313 46.9471Z" fill="#F9AEC5"/>
<path opacity="0.4" d="M224.858 218.978C246.278 218.978 263.643 214.802 263.643 209.65C263.643 204.498 246.278 200.322 224.858 200.322C203.437 200.322 186.072 204.498 186.072 209.65C186.072 214.802 203.437 218.978 224.858 218.978Z" fill="url(#paint23_linear_201_2355)"/>
<path d="M224.12 206.459L223.139 198.358H227.311V206.459H224.12Z" fill="#FCD8E3"/>
<path d="M252.104 203.513L248.668 196.394L252.104 194.185L254.805 201.549L252.104 203.513Z" fill="#FCD8E3"/>
<path d="M218.72 173.074C218.523 170.914 220.111 156.791 220.929 150C223.057 149.754 227.802 149.41 229.767 150C232.221 150.736 238.604 145.826 239.34 146.563C240.077 147.299 241.55 155.891 241.795 158.1C241.991 159.868 242.859 169.31 243.268 173.811L252.841 194.676C253.038 196.247 249.814 197.294 248.177 197.622L236.395 176.511L229.767 162.764L227.312 175.529V199.34C226.526 200.126 223.711 199.667 222.402 199.34C221.257 191.485 218.916 175.234 218.72 173.074Z" fill="#1773FC"/>
<path d="M189.548 104.867L192.555 106.786L190.525 110.193C189.743 109.795 187.38 108.65 184.186 107.258C180.194 105.517 176.871 98.9975 178.317 97.3926C179.763 95.7878 181.286 96.7092 184.043 98.04C186.249 99.105 188.649 102.068 189.548 104.867Z" fill="#FCD8E3"/>
<path d="M203.009 120.787L189.508 110.722C189.508 108.17 191.144 106.386 191.963 105.813L205.218 111.95H228.539C228.048 113.587 227.066 117.35 227.066 119.314C227.066 121.278 222.647 122.096 220.438 122.26L203.009 120.787Z" fill="#F9AEC5"/>
<path d="M246.589 155.126L247.35 152.843L249.419 153.35C249.334 153.893 249.111 155.519 248.905 157.688C248.648 160.399 245.305 163.652 244.018 163.11C242.733 162.567 242.99 161.483 243.247 159.585C243.453 158.067 245.046 156.21 246.589 155.126Z" fill="#FCD8E3"/>
<path d="M227.562 107.178C227.748 108.09 227.816 110.476 226.424 111.569C227.275 112.025 229.441 112.8 231.297 112.253C233.153 111.706 235.517 109.671 235.904 108.759C234.744 108.303 232.209 102.865 233.849 100.851C234.777 99.7105 236.401 97.202 236.634 92.185C236.866 87.1684 230.833 87.6241 228.513 88.3085C226.192 88.9925 223.408 93.5534 222.712 96.2902C222.016 99.0265 222.712 103.587 222.712 104.271C222.712 104.819 225.187 105.564 226.424 105.868C226.579 105.716 227.377 106.266 227.562 107.178Z" fill="#FCD8E3"/>
<path d="M220.929 120.542C221.518 117.007 224.856 112.36 226.329 110.968C227.229 111.296 228.048 111.705 230.011 111.705C231.976 111.705 234.43 109.25 235.412 108.022C235.412 108.022 245.231 114.078 246.458 115.633C247.686 117.187 251.172 135.369 251.368 137.725C251.613 140.671 251.123 154.586 249.895 155.322C248.914 155.911 247.195 154.422 246.458 153.604L245.477 139.444L239.34 125.452C239.012 128.397 239.34 133.111 239.34 134.289C239.34 135.467 239.012 143.78 239.34 146.562C239.258 146.972 238.309 148.134 235.166 149.508C232.025 150.883 223.875 151.063 220.929 150.49V136.498C220.929 134.043 220.193 124.96 220.929 120.542Z" fill="#F9AEC5"/>
<path d="M225.103 91.5755C224.121 91.6577 222.157 91.5755 222.157 90.5937C222.157 89.3663 220.685 88.6301 220.193 88.8752C220.439 87.9751 221.175 86.7153 222.157 86.9116C223.385 87.1572 224.121 86.4205 224.121 85.9298C223.548 85.9298 222.403 85.7822 222.403 85.1931C222.403 84.6949 222.168 84.3955 221.997 84.2656C221.967 84.2473 221.938 84.2291 221.912 84.2113C221.937 84.224 221.966 84.2418 221.997 84.2656C222.524 84.5848 223.564 84.9541 224.121 84.2113C224.857 83.2295 226.33 83.2295 226.821 83.7202C227.312 84.2113 227.312 84.4569 227.803 84.2113C227.312 83.7202 227.312 83.0332 227.312 82.2478C227.312 81.2655 227.312 80.7748 227.803 80.0381C227.885 80.3653 228.196 81.2167 228.785 82.0022C229.522 82.984 231.24 83.7202 231.976 83.7202C232.713 83.7202 237.131 85.9298 236.64 87.8934C236.15 89.8575 237.377 92.3122 236.64 94.0302C235.904 95.7487 235.413 98.9402 234.677 99.922C233.94 100.904 233.204 101.395 233.204 101.886C232.058 99.8799 233.204 95.9943 231.976 94.0302C230.493 91.6572 227.803 90.5937 225.103 91.5755Z" fill="#F9759C"/>
<path d="M250.14 206.95C251.122 205.771 251.531 203.676 251.613 202.776L255.049 200.813L257.75 206.95C257.668 207.604 256.866 209.306 254.313 210.877C251.76 212.449 247.358 213.005 245.476 213.086C245.394 212.596 245.279 211.368 245.476 210.387C245.721 209.159 248.913 208.422 250.14 206.95Z" fill="white"/>
<path d="M224.121 206.459C224.857 206.704 226.575 206.213 227.312 205.722L228.048 211.123C227.066 211.941 224.612 213.774 222.648 214.559C220.684 215.345 217.411 215.705 216.02 215.787C215.234 214.608 215.692 213.332 216.02 212.841C216.592 212.514 218.131 211.712 219.702 211.123C221.273 210.534 223.384 207.686 224.121 206.459Z" fill="white"/>
<path opacity="0.1" d="M67.006 214.211L144.604 213.729L182.143 187.803H98.7145C92.6142 187.803 86.655 189.635 81.609 193.063L64.1236 204.94C59.9757 207.757 61.992 214.242 67.006 214.211Z" fill="url(#paint24_linear_201_2355)"/>
<path d="M135.748 89.0403V206.881C135.748 213.008 142.617 216.623 147.667 213.156L153.483 209.162L178.591 189.156C181.611 186.749 183.371 183.098 183.371 179.236V53.391C183.371 50.9962 180.733 49.5395 178.706 50.814L145.239 71.8598C139.332 75.5744 135.748 82.0628 135.748 89.0403Z" fill="#F3F3F3"/>
<path d="M137.713 90.0965V205.197C137.713 211.382 144.7 214.985 149.738 211.396L180.99 189.141C184.332 186.761 186.317 182.911 186.317 178.809V54.0641C186.317 52.096 184.173 50.8772 182.481 51.8849L147.618 72.6623C141.476 76.3231 137.713 82.9459 137.713 90.0965Z" fill="white" stroke="#F3F3F3" stroke-width="1.01477"/>
<path d="M137.713 89.9284V116.123C137.713 116.123 152.844 125.695 167.661 117.105C184.599 107.286 186.562 86.1748 186.562 86.1748V53.1481C186.562 51.1653 184.39 49.9491 182.7 50.9852L147.4 72.6261C141.381 76.3158 137.713 82.8687 137.713 89.9284Z" fill="#1773FC"/>
<path d="M153.408 98.3883V95.6641C153.408 91.3833 172.478 89.4375 172.867 89.4375C173.256 89.4375 172.867 93.7183 172.867 93.7183C172.867 94.4966 171.31 97.2208 166.64 99.1666C159.955 101.952 153.797 100.334 153.408 98.3883Z" fill="url(#paint25_linear_201_2355)"/>
<path d="M164.701 96.4637C170.07 94.7326 173.804 91.4079 173.039 89.0377C172.275 86.6676 167.303 86.1496 161.933 87.8807C156.564 89.6118 152.83 92.9365 153.594 95.3066C154.359 97.6768 159.331 98.1948 164.701 96.4637Z" fill="#F9AEC5"/>
<path d="M153.408 94.4967V91.7725C153.408 87.4917 172.478 85.5459 172.867 85.5459C173.256 85.5459 172.867 89.8267 172.867 89.8267C172.867 90.605 171.31 93.3292 166.64 95.275C159.955 98.0605 153.797 96.4425 153.408 94.4967Z" fill="url(#paint26_linear_201_2355)"/>
<path d="M164.701 92.5721C170.07 90.841 173.804 87.5163 173.039 85.1461C172.275 82.776 167.303 82.258 161.933 83.9891C156.564 85.7202 152.83 89.0449 153.594 91.4151C154.359 93.7852 159.331 94.3032 164.701 92.5721Z" fill="#F9AEC5"/>
<path d="M153.408 90.6051V87.8809C153.408 83.6001 172.478 81.6543 172.867 81.6543C173.256 81.6543 172.867 85.9351 172.867 85.9351C172.867 86.7134 171.31 89.4376 166.64 91.3834C159.955 94.1684 153.797 92.5509 153.408 90.6051Z" fill="url(#paint27_linear_201_2355)"/>
<path d="M164.638 88.8584C170.031 87.1198 173.773 83.7569 172.996 81.3472C172.219 78.9375 167.218 78.3934 161.825 80.132C156.432 81.8706 152.69 85.2335 153.467 87.6432C154.244 90.0529 159.246 90.597 164.638 88.8584Z" fill="#F9AEC5"/>
<path d="M163.885 127.725C167.575 128.349 171.325 124.368 172.262 118.833C173.198 113.297 170.966 108.304 167.275 107.68C163.585 107.056 159.835 111.037 158.898 116.572C157.962 122.107 160.194 127.101 163.885 127.725Z" fill="#6386FF"/>
<path d="M160.051 173.811V170.62L181.162 158.1V161.046L160.051 173.811Z" fill="#EAEAEA"/>
<path d="M160.051 179.456V176.265L174.288 167.919V170.864L160.051 179.456Z" fill="#EAEAEA"/>
<path d="M150.993 186.216C153.583 186.654 156.215 183.86 156.872 179.976C157.529 176.091 155.963 172.587 153.373 172.148C150.783 171.71 148.151 174.504 147.494 178.389C146.837 182.274 148.403 185.778 150.993 186.216Z" fill="#B2C3FF"/>
<path d="M160.051 149.754V146.562L181.162 134.043V136.989L160.051 149.754Z" fill="#EAEAEA"/>
<path d="M160.051 155.399V152.208L174.288 143.862V146.808L160.051 155.399Z" fill="#EAEAEA"/>
<path d="M150.993 162.16C153.583 162.598 156.215 159.804 156.872 155.919C157.529 152.034 155.963 148.53 153.373 148.092C150.783 147.654 148.151 150.448 147.494 154.332C146.837 158.217 148.403 161.721 150.993 162.16Z" fill="#B2C3FF"/>
<path d="M163.486 119.156L165.512 121.769L168.887 114.405" stroke="white" stroke-width="1.52215" stroke-linecap="round" stroke-linejoin="round"/>
<path d="M181.644 49.8435C179.885 50.0982 179.198 50.5808 178.707 50.8263L181.407 51.8081C183.42 50.3509 185.581 51.0719 185.581 51.0719C185.008 50.663 183.402 49.5888 181.644 49.8435Z" fill="#F3F3F3"/>
<path d="M34.3672 67.2734C34.3672 -3.93899 151.455 -32.6062 157.29 64.8116" stroke="#F9B2C8" stroke-width="1.41374" stroke-linecap="round" stroke-linejoin="round" stroke-dasharray="4.71 7.07"/>
<path d="M255.975 44.8252C258.512 -16.1162 168.959 -15.0462 168.959 57.7635" stroke="#F9B2C8" stroke-width="1.41374" stroke-linecap="round" stroke-linejoin="round" stroke-dasharray="4.71 7.07"/>
<path d="M123.719 46.6531C123.719 23.0877 163.376 -14.0869 163.376 61.2597" stroke="#F9B2C8" stroke-width="1.41374" stroke-linecap="round" stroke-linejoin="round" stroke-dasharray="4.71 7.07"/>
<path d="M56.4593 140.671C29.9353 19.9079 151.2 -3.93915 151.2 68.8705" stroke="#F9B2C8" stroke-width="1.41374" stroke-linecap="round" stroke-linejoin="round" stroke-dasharray="4.71 7.07"/>
<mask id="mask0_201_2355" style="mask-type:alpha" maskUnits="userSpaceOnUse" x="97" y="189" width="40" height="27">
<path d="M135.982 211.846C133.984 216.678 123.86 216.333 113.369 211.075C102.878 205.817 95.9935 197.637 97.9916 192.806C99.9896 187.974 110.114 188.319 120.605 193.577C131.095 198.835 137.98 207.014 135.982 211.846Z" fill="#F4A0D7"/>
</mask>
<g mask="url(#mask0_201_2355)">
<path d="M133.335 218.248C131.337 223.08 121.213 222.734 110.722 217.477C100.232 212.219 93.347 204.039 95.3451 199.207C97.3431 194.376 107.467 194.721 117.958 199.979C128.449 205.236 135.333 213.416 133.335 218.248Z" fill="#BECCFF"/>
</g>
<mask id="mask1_201_2355" style="mask-type:alpha" maskUnits="userSpaceOnUse" x="109" y="176" width="30" height="39">
<path d="M136.416 213.409C132.591 216.643 123.799 211.106 116.778 201.042C109.756 190.978 107.165 180.198 110.989 176.964C114.814 173.73 123.606 179.267 130.627 189.331C137.649 199.395 140.24 210.175 136.416 213.409Z" fill="#C4C4C4"/>
</mask>
<g mask="url(#mask1_201_2355)">
<path d="M131.349 217.693C127.525 220.927 118.733 215.391 111.711 205.327C104.69 195.263 102.098 184.483 105.923 181.249C109.747 178.015 118.54 183.551 125.561 193.615C132.582 203.679 135.174 214.459 131.349 217.693Z" fill="#8FA6F9"/>
</g>
<mask id="mask2_201_2355" style="mask-type:alpha" maskUnits="userSpaceOnUse" x="126" y="176" width="16" height="40">
<path d="M136.077 215.755C131.929 216.313 127.582 207.916 126.37 196.999C125.157 186.082 127.537 176.779 131.685 176.221C135.834 175.662 140.18 184.059 141.393 194.976C142.606 205.893 140.226 215.196 136.077 215.755Z" fill="#8D8D8D"/>
</mask>
<g mask="url(#mask2_201_2355)">
<path d="M130.583 216.494C126.435 217.053 122.088 208.656 120.876 197.739C119.663 186.822 122.043 177.519 126.191 176.96C130.34 176.402 134.686 184.799 135.899 195.716C137.112 206.633 134.732 215.936 130.583 216.494Z" fill="#6386FF"/>
</g>
<defs>
<linearGradient id="paint0_linear_201_2355" x1="161.305" y1="81.3076" x2="145.699" y2="149.025" gradientUnits="userSpaceOnUse">
<stop stop-color="#5F7AEC"/>
<stop offset="1" stop-color="#F9AEC5"/>
</linearGradient>
<linearGradient id="paint1_linear_201_2355" x1="72.1592" y1="175.03" x2="16.9194" y2="208.182" gradientUnits="userSpaceOnUse">
<stop stop-color="#FFBDD1"/>
<stop offset="1" stop-color="#7795FF" stop-opacity="0.58"/>
</linearGradient>
<linearGradient id="paint2_linear_201_2355" x1="35.1992" y1="178.588" x2="73.8964" y2="178.588" gradientUnits="userSpaceOnUse">
<stop stop-color="#F9AEC5"/>
<stop offset="0.535912" stop-color="#FFDAE6"/>
<stop offset="1" stop-color="#F9AEC5"/>
</linearGradient>
<linearGradient id="paint3_linear_201_2355" x1="35.1992" y1="171.515" x2="73.8964" y2="171.515" gradientUnits="userSpaceOnUse">
<stop stop-color="#F9AEC5"/>
<stop offset="0.535912" stop-color="#FFDAE6"/>
<stop offset="1" stop-color="#F9AEC5"/>
</linearGradient>
<linearGradient id="paint4_linear_201_2355" x1="35.1992" y1="164.682" x2="73.8964" y2="164.682" gradientUnits="userSpaceOnUse">
<stop stop-color="#F9AEC5"/>
<stop offset="0.535912" stop-color="#FFDAE6"/>
<stop offset="1" stop-color="#F9AEC5"/>
</linearGradient>
<linearGradient id="paint5_linear_201_2355" x1="35.1992" y1="157.85" x2="73.8964" y2="157.85" gradientUnits="userSpaceOnUse">
<stop stop-color="#F9AEC5"/>
<stop offset="0.535912" stop-color="#FFDAE6"/>
<stop offset="1" stop-color="#F9AEC5"/>
</linearGradient>
<linearGradient id="paint6_linear_201_2355" x1="38.127" y1="151.018" x2="76.8241" y2="151.018" gradientUnits="userSpaceOnUse">
<stop stop-color="#F9AEC5"/>
<stop offset="0.535912" stop-color="#FFDAE6"/>
<stop offset="1" stop-color="#F9AEC5"/>
</linearGradient>
<linearGradient id="paint7_linear_201_2355" x1="43.8484" y1="85.0038" x2="14.0401" y2="102.893" gradientUnits="userSpaceOnUse">
<stop stop-color="#FFBDD1"/>
<stop offset="1" stop-color="#7795FF" stop-opacity="0.58"/>
</linearGradient>
<linearGradient id="paint8_linear_201_2355" x1="23.9043" y1="86.9238" x2="44.7857" y2="86.9238" gradientUnits="userSpaceOnUse">
<stop stop-color="#F9AEC5"/>
<stop offset="0.535912" stop-color="#FFDAE6"/>
<stop offset="1" stop-color="#F9AEC5"/>
</linearGradient>
<linearGradient id="paint9_linear_201_2355" x1="23.9043" y1="83.1065" x2="44.7857" y2="83.1065" gradientUnits="userSpaceOnUse">
<stop stop-color="#F9AEC5"/>
<stop offset="0.535912" stop-color="#FFDAE6"/>
<stop offset="1" stop-color="#F9AEC5"/>
</linearGradient>
<linearGradient id="paint10_linear_201_2355" x1="23.9043" y1="79.4197" x2="44.7857" y2="79.4197" gradientUnits="userSpaceOnUse">
<stop stop-color="#F9AEC5"/>
<stop offset="0.535912" stop-color="#FFDAE6"/>
<stop offset="1" stop-color="#F9AEC5"/>
</linearGradient>
<linearGradient id="paint11_linear_201_2355" x1="23.9043" y1="75.7332" x2="44.7857" y2="75.7332" gradientUnits="userSpaceOnUse">
<stop stop-color="#F9AEC5"/>
<stop offset="0.535912" stop-color="#FFDAE6"/>
<stop offset="1" stop-color="#F9AEC5"/>
</linearGradient>
<linearGradient id="paint12_linear_201_2355" x1="24.0098" y1="72.0462" x2="44.8917" y2="72.0462" gradientUnits="userSpaceOnUse">
<stop stop-color="#F9AEC5"/>
<stop offset="0.535912" stop-color="#FFDAE6"/>
<stop offset="1" stop-color="#F9AEC5"/>
</linearGradient>
<linearGradient id="paint13_linear_201_2355" x1="134.184" y1="64.3839" x2="104.376" y2="82.2733" gradientUnits="userSpaceOnUse">
<stop stop-color="#FFBDD1"/>
<stop offset="1" stop-color="#7795FF" stop-opacity="0.58"/>
</linearGradient>
<linearGradient id="paint14_linear_201_2355" x1="114.238" y1="66.304" x2="135.12" y2="66.304" gradientUnits="userSpaceOnUse">
<stop stop-color="#F9AEC5"/>
<stop offset="0.535912" stop-color="#FFDAE6"/>
<stop offset="1" stop-color="#F9AEC5"/>
</linearGradient>
<linearGradient id="paint15_linear_201_2355" x1="114.238" y1="62.4866" x2="135.12" y2="62.4866" gradientUnits="userSpaceOnUse">
<stop stop-color="#F9AEC5"/>
<stop offset="0.535912" stop-color="#FFDAE6"/>
<stop offset="1" stop-color="#F9AEC5"/>
</linearGradient>
<linearGradient id="paint16_linear_201_2355" x1="114.238" y1="58.8001" x2="135.12" y2="58.8001" gradientUnits="userSpaceOnUse">
<stop stop-color="#F9AEC5"/>
<stop offset="0.535912" stop-color="#FFDAE6"/>
<stop offset="1" stop-color="#F9AEC5"/>
</linearGradient>
<linearGradient id="paint17_linear_201_2355" x1="114.238" y1="55.1128" x2="135.12" y2="55.1128" gradientUnits="userSpaceOnUse">
<stop stop-color="#F9AEC5"/>
<stop offset="0.535912" stop-color="#FFDAE6"/>
<stop offset="1" stop-color="#F9AEC5"/>
</linearGradient>
<linearGradient id="paint18_linear_201_2355" x1="111.891" y1="51.4263" x2="132.773" y2="51.4263" gradientUnits="userSpaceOnUse">
<stop stop-color="#F9AEC5"/>
<stop offset="0.535912" stop-color="#FFDAE6"/>
<stop offset="1" stop-color="#F9AEC5"/>
</linearGradient>
<linearGradient id="paint19_linear_201_2355" x1="264.723" y1="55.5843" x2="234.915" y2="73.4738" gradientUnits="userSpaceOnUse">
<stop stop-color="#FFBDD1"/>
<stop offset="1" stop-color="#7795FF" stop-opacity="0.58"/>
</linearGradient>
<linearGradient id="paint20_linear_201_2355" x1="244.779" y1="57.5044" x2="265.661" y2="57.5044" gradientUnits="userSpaceOnUse">
<stop stop-color="#F9AEC5"/>
<stop offset="0.535912" stop-color="#FFDAE6"/>
<stop offset="1" stop-color="#F9AEC5"/>
</linearGradient>
<linearGradient id="paint21_linear_201_2355" x1="244.779" y1="53.6878" x2="265.661" y2="53.6878" gradientUnits="userSpaceOnUse">
<stop stop-color="#F9AEC5"/>
<stop offset="0.535912" stop-color="#FFDAE6"/>
<stop offset="1" stop-color="#F9AEC5"/>
</linearGradient>
<linearGradient id="paint22_linear_201_2355" x1="244.779" y1="50.0012" x2="265.661" y2="50.0012" gradientUnits="userSpaceOnUse">
<stop stop-color="#F9AEC5"/>
<stop offset="0.535912" stop-color="#FFDAE6"/>
<stop offset="1" stop-color="#F9AEC5"/>
</linearGradient>
<linearGradient id="paint23_linear_201_2355" x1="261.245" y1="207.59" x2="198.579" y2="238.865" gradientUnits="userSpaceOnUse">
<stop stop-color="#FFBDD1"/>
<stop offset="1" stop-color="#7795FF" stop-opacity="0.58"/>
</linearGradient>
<linearGradient id="paint24_linear_201_2355" x1="178.425" y1="198.092" x2="84.9948" y2="249.158" gradientUnits="userSpaceOnUse">
<stop stop-color="#FFBDD1"/>
<stop offset="1" stop-color="#7795FF" stop-opacity="0.58"/>
</linearGradient>
<linearGradient id="paint25_linear_201_2355" x1="153.408" y1="100.334" x2="172.867" y2="100.334" gradientUnits="userSpaceOnUse">
<stop stop-color="#F9AEC5"/>
<stop offset="0.535912" stop-color="#FFDAE6"/>
<stop offset="1" stop-color="#F9AEC5"/>
</linearGradient>
<linearGradient id="paint26_linear_201_2355" x1="153.408" y1="96.4425" x2="172.867" y2="96.4425" gradientUnits="userSpaceOnUse">
<stop stop-color="#F9AEC5"/>
<stop offset="0.535912" stop-color="#FFDAE6"/>
<stop offset="1" stop-color="#F9AEC5"/>
</linearGradient>
<linearGradient id="paint27_linear_201_2355" x1="153.408" y1="92.5509" x2="172.867" y2="92.5509" gradientUnits="userSpaceOnUse">
<stop stop-color="#F9AEC5"/>
<stop offset="0.535912" stop-color="#FFDAE6"/>
<stop offset="1" stop-color="#F9AEC5"/>
</linearGradient>
</defs>
</svg>
