<svg width="285" height="218" viewBox="0 0 285 218" fill="none" xmlns="http://www.w3.org/2000/svg">
<path opacity="0.25" d="M258.694 108.572C246.346 138.537 216.068 136.373 187.786 145.536C164.745 153 146.558 174.727 100.952 170.631C55.3467 166.534 17.937 125.398 30.5901 79.8155C43.2433 34.2333 96.9806 8.03663 162.909 36.6193C228.837 65.202 271.041 78.6076 258.694 108.572Z" fill="url(#paint0_linear_201_2448)"/>
<path opacity="0.4" d="M188.298 185.807C215.85 185.807 238.186 184.211 238.186 182.243C238.186 180.275 215.85 178.68 188.298 178.68C160.746 178.68 138.41 180.275 138.41 182.243C138.41 184.211 160.746 185.807 188.298 185.807Z" fill="url(#paint1_linear_201_2448)"/>
<path d="M215.072 16.0144H145.871C140.786 16.0144 136.664 20.1365 136.664 25.2213V137.821C136.664 142.906 140.786 147.028 145.871 147.028H215.072C220.157 147.028 224.279 142.906 224.279 137.821V25.2213C224.279 20.1365 220.157 16.0144 215.072 16.0144Z" fill="#B2C3FF"/>
<path d="M213.838 14.5305H144.637C139.552 14.5305 135.43 18.6526 135.43 23.7374V136.337C135.43 141.422 139.552 145.544 144.637 145.544H213.838C218.923 145.544 223.045 141.422 223.045 136.337V23.7374C223.045 18.6526 218.923 14.5305 213.838 14.5305Z" fill="url(#paint2_linear_201_2448)"/>
<path d="M179.238 112.024C196.351 112.024 210.224 97.801 210.224 80.2563C210.224 62.7116 196.351 48.4888 179.238 48.4888C162.125 48.4888 148.252 62.7116 148.252 80.2563C148.252 97.801 162.125 112.024 179.238 112.024Z" fill="white"/>
<path d="M174.963 76.9703C174.963 80.4136 170.262 82.009 168.766 82.4473C170.618 84.0539 175.433 87.2671 179.878 87.2671C184.323 87.2671 187.713 84.0539 188.853 82.4473C187.5 81.644 184.152 79.424 184.152 76.9703V71.9312H174.963V76.9703Z" fill="#FCD8E3"/>
<path d="M157.012 91.9774V102.384C157.012 102.384 163.423 111.805 180.091 111.805C196.759 111.805 200.819 102.384 200.819 102.384C201.247 98.4404 201.845 95.8335 200.819 91.9774C199.794 88.1218 190.72 82.1841 186.517 80.4314C185.52 82.038 182.558 84.5039 178.626 84.5039C174.694 84.5039 173.698 82.038 172.772 80.4314C172.772 80.4314 157.012 87.771 157.012 91.9774Z" fill="#B2C3FF"/>
<path d="M170.557 57.0671C170.055 51.7612 174.228 47.1746 179.558 47.1746C184.809 47.1746 188.956 51.6339 188.575 56.8716L187.685 69.0987C187.38 73.2888 183.892 76.532 179.691 76.532C175.557 76.532 172.101 73.3876 171.712 69.2723L170.557 57.0671Z" fill="#FCD8E3"/>
<path d="M171.545 66.6729C170.619 64.8475 168.767 56.7264 169.622 52.8708C170.691 48.0505 182.23 44.7645 181.589 42.1353C183.94 43.2308 188.855 48.5764 188.855 55.0613C188.855 61.3309 188.216 63.4063 187.926 64.9376C187.893 65.4288 187.844 65.8686 187.786 66.2346C187.786 65.7882 187.841 65.386 187.926 64.9376C188.139 61.8033 187.734 56.5768 185.222 55.0613C181.589 52.8708 177.315 52.2828 173.468 55.0613C170.477 57.2228 170.976 64.8973 171.545 66.6729Z" fill="#F9759C"/>
<path d="M154.662 36.8772H152.525V46.9551H154.662V36.8772Z" fill="#D84AA8"/>
<path d="M152.525 36.8775V39.0684H162.355V36.8775H152.525Z" fill="#D84AA8"/>
<path d="M204.238 36.8772H206.375V46.9551H204.238V36.8772Z" fill="#D84AA8"/>
<path d="M206.375 36.8775L206.375 39.0684L196.545 39.0684L196.545 36.8775L206.375 36.8775Z" fill="#D84AA8"/>
<path d="M154.662 118.377H152.525V107.423H154.662V118.377Z" fill="#D84AA8"/>
<path d="M152.525 118.377L152.525 115.996L162.355 115.996L162.355 118.377L152.525 118.377Z" fill="#D84AA8"/>
<path d="M204.238 118.377H206.375V107.423H204.238V118.377Z" fill="#D84AA8"/>
<path d="M206.375 118.377V115.996H196.545V118.377H206.375Z" fill="#D84AA8"/>
<path d="M193.303 124.512H165.17C164.323 124.512 163.637 125.199 163.637 126.046C163.637 126.893 164.323 127.579 165.17 127.579H193.303C194.15 127.579 194.836 126.893 194.836 126.046C194.836 125.199 194.15 124.512 193.303 124.512Z" fill="#D2D9F1"/>
<path d="M202.706 131.084H155.768C154.921 131.084 154.234 131.771 154.234 132.618C154.234 133.465 154.921 134.151 155.768 134.151H202.706C203.553 134.151 204.239 133.465 204.239 132.618C204.239 131.771 203.553 131.084 202.706 131.084Z" fill="#D2D9F1"/>
<path d="M154.104 18.9121H143.255C142.238 18.9121 141.414 19.7365 141.414 20.7535V28.9014C141.414 29.9183 142.238 30.7428 143.255 30.7428H154.104C155.121 30.7428 155.945 29.9183 155.945 28.9014V20.7535C155.945 19.7365 155.121 18.9121 154.104 18.9121Z" fill="#ABB8E7"/>
<path d="M155.913 22.4175H149.996C149.741 22.4175 149.535 22.6236 149.535 22.8778V26.3389C149.535 26.5931 149.741 26.7992 149.996 26.7992H155.913C156.167 26.7992 156.373 26.5931 156.373 26.3389V22.8778C156.373 22.6236 156.167 22.4175 155.913 22.4175Z" fill="#DBE1F4"/>
<path d="M222.749 30.5436C230.702 30.5436 237.149 23.7062 237.149 15.2718C237.149 6.83741 230.702 0 222.749 0C214.796 0 208.35 6.83741 208.35 15.2718C208.35 23.7062 214.796 30.5436 222.749 30.5436Z" fill="#1773FC"/>
<path fill-rule="evenodd" clip-rule="evenodd" d="M230.692 11.6895L221.186 21.8895L215.797 16.1076L217.202 14.5993L221.186 18.8728L229.287 10.1812L230.692 11.6895Z" fill="white"/>
<path opacity="0.4" d="M104.051 217.534C127.808 217.534 147.066 215.02 147.066 211.919C147.066 208.819 127.808 206.305 104.051 206.305C80.2939 206.305 61.0352 208.819 61.0352 211.919C61.0352 215.02 80.2939 217.534 104.051 217.534Z" fill="url(#paint3_linear_201_2448)"/>
<path d="M88.5742 208.171V199.948L89.1515 196.27L93.7692 196.546L91.4962 208.171H88.5742Z" fill="#FCD8E3"/>
<path d="M115.015 205.281L113.832 193.99L119.001 193.492L118.747 204.921L115.015 205.281Z" fill="#FCD8E3"/>
<path d="M87.9961 212.046C87.9961 207.617 88.5729 203.189 88.5729 203.189C89.4388 203.742 91.1706 203.742 92.3246 203.189C92.3246 205.126 92.9019 207.894 94.0564 208.448C95.2105 209.001 95.2105 209.001 95.2105 210.108C95.2105 211.215 93.1905 212.046 93.1905 212.046H87.9961Z" fill="#6885EF"/>
<path d="M125.954 208.939C122.779 209.77 117.681 209.677 114.41 209.493L114.597 201.153C117.007 201.706 118.739 200.876 118.739 201.153C118.739 201.429 119.605 206.172 123.068 207.002C125.838 207.666 126.05 208.57 125.954 208.939Z" fill="#6885EF"/>
<path d="M99.8282 174.128C99.8282 176.121 95.0181 192.814 92.6133 201.025C90.7664 201.689 88.6691 201.301 87.9961 201.025L91.4587 174.128C90.882 167.486 92.6133 146.285 92.6133 143.407C92.6133 140.528 93.7678 135.011 93.7678 132.613H115.411C116.277 143.407 122.63 167.911 122.63 170.789C122.63 173.668 119.604 198.944 119.604 198.944C119.604 198.944 114.987 199.405 113.832 198.944C113.832 197.56 114.161 181.324 112.814 174.128L103.002 156.969C102.329 161.397 99.8282 172.135 99.8282 174.128Z" fill="#1773FC"/>
<path d="M138.296 100.457C137.372 102.45 137.334 105.346 137.431 106.546C138.2 107.284 139.739 108.594 139.739 107.93C139.739 107.1 142.336 106.546 143.202 104.332C143.895 102.56 147.242 98.2429 144.934 96.5819C144.068 95.1982 139.45 97.966 138.296 100.457Z" fill="#FCD8E3"/>
<path d="M83.6307 146.669C83.5299 144.482 84.2838 142.166 83.6414 141.117C82.6121 140.764 83.0534 140.111 81.3399 140.788C81.0085 140.918 79.0609 143.651 79.3159 146.016C79.5201 147.907 78.7778 150.506 81.6087 151.065C83.0341 151.097 83.757 149.403 83.6307 146.669Z" fill="#FCD8E3"/>
<path d="M113.392 122.926C113.854 124.032 122.05 136.487 126.09 142.576L127.721 141.616L114.546 120.988C113.97 121.172 112.931 121.818 113.392 122.926Z" fill="#4066EA"/>
<path d="M100.406 91.6505C100.406 93.4215 99.7326 97.6472 98.9629 98.2927C99.7326 99.3999 101.791 101.614 103.869 101.614C106.466 101.614 109.063 99.123 107.909 98.2927C106.986 97.6284 107.138 92.7577 106.85 91.6505C105.311 90.9124 100.406 89.879 100.406 91.6505Z" fill="#FCD8E3"/>
<path d="M107.292 93.502L104.449 94.0925C102.81 94.314 98.0881 87.8459 97.6075 84.1043C97.1265 80.3627 97.1595 76.2979 105.354 75.1912C113.548 74.0845 110.49 90.2787 110.104 91.5997C109.795 92.6565 108.1 93.3086 107.292 93.502Z" fill="#FCD8E3"/>
<path d="M93.0289 81.5839C93.4239 85.1045 98.3185 89.9029 99.6507 91.4245C101.177 92.0888 103.379 91.0061 103.379 91.0061C103.945 90.0139 103.949 86.0753 104.134 84.794C104.461 82.5297 106.245 79.5339 108.296 77.8906C112.293 74.6881 107.845 68.6884 107.638 66.8547C105.816 68.7306 104.793 69.9595 99.3438 70.5709C93.0345 71.279 92.5351 77.1836 93.0289 81.5839Z" fill="#F9759C"/>
<path d="M82.261 121.563L80.125 141.773H83.9323C84.9611 137.556 88.3524 128.328 88.7872 126.247C89.2224 124.165 92.7721 117.912 93.7693 115.57C93.7693 116.784 94.6683 121.871 94.6683 125.618C94.6683 130.302 92.7904 134.694 92.7904 137.556C92.7904 140.419 96.2225 142.537 100.845 142.537C105.469 142.537 116.023 139.659 116.023 137.577V127.071V115.57C118.289 119.56 121.205 122.236 124.686 122.236C128.166 122.236 138.028 114.118 140.385 107.18L137.394 106.139L124.686 113.91C121.785 109.399 116.858 100.119 114.248 99.0781C110.984 97.777 108.829 98.0371 107.741 98.0371C106.654 98.0371 106.926 100.379 103.391 100.379C99.8556 100.379 99.8556 98.0371 99.0396 98.0371C98.387 98.0371 94.6683 99.0781 92.2208 100.379C89.7732 101.68 82.261 121.563 82.261 121.563Z" fill="#B2C3FF"/>
<path d="M121.613 145.591L120.318 146.728C117.426 144.463 110.048 134.077 104.305 122.174C100.419 114.122 97.4324 105.375 95.5 99.0009C95.5962 98.8151 95.8029 98.782 96.6688 98.503C97.5347 98.224 98.001 98.0703 98.0972 98.1635C98.6745 100.955 99.6066 107.841 106.466 121.05C111.941 131.592 119.593 142.986 121.613 145.591Z" fill="#6885EF"/>
<path d="M121.474 145.344L119.742 145.898L122.34 165.271L130.42 163.611L126.668 154.477L128.112 153.371L121.474 145.344Z" fill="#4066EA"/>
<path d="M121.473 145.344L127.822 141.469L134.17 148.111L133.378 148.8L136.768 155.031L130.419 163.611L126.667 154.477L128.11 153.371L121.473 145.344Z" fill="#6885EF"/>
<path d="M36.4155 195.31C16.8564 189.924 14.0169 183.452 3.58984 183.452C8.16273 178.511 36.862 168.808 50.4422 186.91C64.0223 205.012 61.5361 211.139 61.5361 211.139C61.5361 211.139 53.9781 200.146 36.4155 195.31Z" fill="#FEC6D7"/>
<path d="M30.2625 175.117C-4.60804 151.954 0.228025 110.975 0.228025 110.975C7.86392 141.519 50.4132 141.346 61.248 167.156C72.0833 192.967 61.248 211.374 61.248 211.374C61.248 211.374 65.1331 198.279 30.2625 175.117Z" fill="#6386FF"/>
<path d="M244.42 132.54C234.371 147.77 235.223 172.564 236.905 183.057C241.469 171.042 247.244 154.187 259.251 142.882C272.992 129.944 280.469 114.528 284.999 100.706C280.63 110.723 256.981 113.502 244.42 132.54Z" fill="#7795FF" fill-opacity="0.7"/>
<path d="M246.575 112.195C236.526 127.425 237.377 152.218 239.06 162.711C243.623 150.696 249.398 133.841 261.405 122.537C275.146 109.598 280.977 91.5366 281.414 77.0752C276.717 78.9679 259.135 93.1564 246.575 112.195Z" fill="#7795FF" fill-opacity="0.7"/>
<path d="M238.145 116.265C229.569 140.508 233.699 171.37 236.836 183.771C240.065 166.328 248.575 139.549 257.147 123.185C267.814 102.822 273.689 75.5165 276.648 55.8098C273.362 70.6341 248.865 85.9614 238.145 116.265Z" fill="#6386FF"/>
<defs>
<linearGradient id="paint0_linear_201_2448" x1="156.581" y1="31.5358" x2="129.261" y2="176.37" gradientUnits="userSpaceOnUse">
<stop stop-color="#FEC6D7"/>
<stop offset="1" stop-color="#6386FF"/>
</linearGradient>
<linearGradient id="paint1_linear_201_2448" x1="235.101" y1="181.457" x2="208.771" y2="225.702" gradientUnits="userSpaceOnUse">
<stop stop-color="#FFBDD1"/>
<stop offset="1" stop-color="#7795FF" stop-opacity="0.58"/>
</linearGradient>
<linearGradient id="paint2_linear_201_2448" x1="179.237" y1="14.5305" x2="179.237" y2="145.544" gradientUnits="userSpaceOnUse">
<stop stop-color="#D8E1FF"/>
<stop offset="1" stop-color="#F5F4FF"/>
</linearGradient>
<linearGradient id="paint3_linear_201_2448" x1="144.406" y1="210.68" x2="97.3723" y2="253.933" gradientUnits="userSpaceOnUse">
<stop stop-color="#FFBDD1"/>
<stop offset="1" stop-color="#7795FF" stop-opacity="0.58"/>
</linearGradient>
</defs>
</svg>
