<svg width="285" height="247" viewBox="0 0 285 247" fill="none" xmlns="http://www.w3.org/2000/svg">
<path opacity="0.25" d="M157.176 197.636C71.437 216.801 30.2949 209.679 30.2949 161.191C30.2949 11.6393 285 16.6659 285 161.191C285 205.847 242.915 178.471 157.176 197.636Z" fill="url(#paint0_linear_201_2320)"/>
<path opacity="0.25" d="M92.2304 245.016C110.147 245.016 124.672 243.455 124.672 241.53C124.672 239.605 110.147 238.045 92.2304 238.045C74.3135 238.045 59.7891 239.605 59.7891 241.53C59.7891 243.455 74.3135 245.016 92.2304 245.016Z" fill="url(#paint1_linear_201_2320)"/>
<path d="M26.2748 211.665C19.0358 192.734 15.2823 184.155 0 188.445C17.4272 173.162 44.8157 185.068 45.2645 211.665C45.7133 238.263 36.0292 241.146 36.0292 241.146C36.0292 241.146 33.4542 230.441 26.2748 211.665Z" fill="#6386FF"/>
<path d="M36.0993 191.126C23.7834 166.35 14.2832 146.344 30.7124 124.366C8.84697 157.076 57.0001 177.679 54.1522 204.903C51.3038 232.128 36.0993 241.194 36.0993 241.194C36.0993 241.194 48.4147 215.901 36.0993 191.126Z" fill="#A0B5FF"/>
<path d="M52.1582 146.154C52.4971 147.163 56.464 149.235 57.6641 149.514L59.9934 147.415C59.9232 146.294 58.3842 143.635 57.8759 142.795C57.2405 141.745 54.0639 140.485 52.1582 141.745C50.2525 143.005 51.7346 144.895 52.1582 146.154Z" fill="#FCD8E3"/>
<path d="M110.672 95.5809L110.261 101.442H113.677C113.677 100.815 113.766 96.2266 114.2 95.5809C114.743 94.7739 115.829 91.8161 116.1 88.5892C116.371 85.3622 113.386 85.093 112.3 85.093C111.215 85.093 109.586 87.7822 109.315 89.6648C109.098 91.1705 110.129 94.2361 110.672 95.5809Z" fill="#FCD8E3"/>
<path d="M88.757 126.628C88.757 127.476 89.0445 130.301 87.8959 132.279C88.949 133.032 90.3367 133.409 91.7148 133.409C93.0934 133.409 95.1606 132.39 96.0223 131.637L94.4002 126.628C95.3761 125.601 96.5966 122.805 96.5966 121.542C96.5966 120.129 96.5966 116.173 96.0223 114.761C95.448 113.348 93.4377 111.935 91.1405 111.935C88.8434 111.935 87.1205 113.065 86.5462 114.761C85.9719 116.456 85.685 119.282 85.9719 121.542C86.2019 123.35 88.0873 125.686 88.757 126.628Z" fill="#FCD8E3"/>
<path d="M91.4734 123.892C90.7414 123.892 89.033 125.6 88.7891 125.844C88.7891 126.576 91.2294 129.505 91.9613 129.505C92.6933 129.505 94.4017 126.332 94.4017 125.844C94.4017 125.357 92.2053 123.892 91.4734 123.892Z" fill="#EFC9E3"/>
<path d="M83.4193 207.591L81.7109 202.223L84.6392 198.806C84.9647 200.189 85.664 204.517 85.8597 205.883C86.0549 207.25 84.3953 207.754 83.4193 207.591Z" fill="#FCD8E3"/>
<path d="M96.5977 219.548L97.0856 211.008H101.722C101.315 213.285 99.7699 219.548 99.282 220.28C98.8353 220.95 96.9231 219.955 96.5977 219.548Z" fill="#FCD8E3"/>
<path d="M75.123 181.237C74.1471 179.09 80.7356 170.093 83.9079 164.4L102.453 163.423L107.09 190.021L101.477 213.936C100.745 215.156 96.1085 214.668 96.353 212.716C96.5482 211.154 97.329 194.821 98.0609 190.021L90.9844 176.112L85.1278 181.969V201.735C84.6398 203.199 82.6874 203.443 81.7115 203.199C80.7351 202.955 76.3429 183.921 75.123 181.237Z" fill="#3C56C6"/>
<path d="M71.7079 160.251C70.1465 160.446 61.6216 154.314 57.5549 151.223C56.579 148.294 59.1003 146.749 60.4832 146.342L71.7079 152.687C72.3589 150.816 73.8555 146.537 74.6362 144.39C75.6122 141.706 80.7368 136.093 82.2007 134.629C83.1772 133.653 86.1055 131.782 87.8133 130.969C88.5453 131.213 89.2777 132.189 91.9615 132.189C95.1338 132.189 96.1102 129.993 96.1102 129.993C96.1102 129.993 98.7946 129.993 99.7705 129.505C100.746 129.017 106.847 118.036 107.335 117.304C107.579 115.107 110.019 100.466 110.019 100.466C110.019 100.466 110.751 100.954 111.972 100.954C113.436 100.954 114.167 100.466 114.167 100.466C114.167 100.466 114.899 117.304 114.167 119.5C113.436 121.696 105.139 137.069 103.187 139.754C101.234 142.438 100.746 158.055 102.699 163.911C99.0386 168.06 96.4684 168.06 91.9615 168.06C87.0814 168.06 84.5601 165.701 83.6651 164.644C85.129 160.984 83.6651 146.342 83.6651 146.342C80.3304 150.897 73.2699 160.056 71.7079 160.251Z" fill="#6386FF"/>
<path d="M95.7759 227.681C95.2998 226.461 96.0843 220.765 96.4612 219.329L96.9471 219.374L99.6223 219.659L100.683 227.681C100.571 228.896 99.5198 231.21 98.1589 231.085C96.458 230.929 96.3711 229.206 95.7759 227.681Z" fill="#F5B4C8"/>
<path d="M84.9456 206.923C84.0834 207.5 83.6394 207.4 83.5252 207.278C83.1493 208.998 80.8591 212.387 79.5898 213.683C79.7571 214.017 80.3974 214.702 80.6714 214.995C81.0146 215.361 83.145 214.83 84.5906 213.565C85.7467 212.554 87.557 209.662 88.3174 208.342L85.8642 205.564C85.9173 205.777 85.8079 206.347 84.9456 206.923Z" fill="#F5B4C8"/>
<path d="M85.5732 110.227C84.9876 111.984 85.3716 118.035 85.8595 120.476C85.8595 115.351 88.2575 112.423 91.6738 112.423C94.4063 112.423 95.7834 115.84 96.3528 117.792C96.1898 116.897 96.5051 115.254 97.2858 113.887C98.0671 112.52 96.9609 108.763 96.3099 107.055C96.3099 107.64 95.334 108.275 94.846 108.519C95.2364 107.152 94.0326 105.997 93.3816 105.59C93.1376 107.543 89.9654 109.251 90.6973 108.519C91.2829 107.933 90.4533 106.323 89.9654 105.59C89.7214 106.811 86.3051 108.031 85.5732 110.227Z" fill="#3C56C6"/>
<path opacity="0.25" d="M200.552 246.147C212.681 246.147 222.514 244.29 222.514 241.998C222.514 239.707 212.681 237.85 200.552 237.85C188.423 237.85 178.59 239.707 178.59 241.998C178.59 244.29 188.423 246.147 200.552 246.147Z" fill="url(#paint2_linear_201_2320)"/>
<path d="M198.109 131.213V150.49H199.817V133.897H205.186C205.725 133.897 206.162 133.46 206.162 132.921V132.837C206.162 132.578 206.059 132.33 205.876 132.147L204.252 130.523C204.068 130.34 203.82 130.237 203.562 130.237H199.085C198.546 130.237 198.109 130.674 198.109 131.213Z" fill="#3C56C6"/>
<path d="M197.621 163.179H202.989V240.778C202.989 240.778 202.257 241.266 200.305 241.266C198.353 241.266 197.621 240.778 197.621 240.778V163.179Z" fill="#B2C3FF"/>
<path d="M232.085 222.071C223.347 224.616 215.894 236.002 213.191 241.262C218.787 237.884 234.628 234.083 234.628 234.083C234.628 234.083 251.734 228.91 257.895 224.731C253.012 227.317 243.007 218.89 232.085 222.071Z" fill="#FFE0EA"/>
<path d="M225.206 214.919C217.639 221.187 214.166 235.154 213.191 241.262C217.504 235.617 231.304 224.982 231.304 224.982C231.304 224.982 246.059 212.533 250.665 205.89C246.792 210.478 234.665 207.084 225.206 214.919Z" fill="#FEC6D7"/>
<path d="M211.387 210.284C206.89 219.009 210.692 234.596 213.193 241.262C214.551 234.123 223.79 219.056 223.79 219.056C223.79 219.056 232.426 201.806 233.522 193.539C232.021 199.447 217.008 199.377 211.387 210.284Z" fill="#F9759C"/>
<path d="M186.396 141.218H211.775C217.165 141.218 221.536 145.588 221.536 150.978V163.18H186.396V141.218Z" fill="#F9759C"/>
<path d="M179.076 149.514C179.076 144.932 182.791 141.218 187.373 141.218C191.955 141.218 195.67 144.932 195.67 149.514V163.18H179.076V149.514Z" fill="#FEC6D7"/>
<path d="M191.521 155.371H182.736C182.332 155.371 182.004 155.699 182.004 156.103C182.004 156.507 182.332 156.835 182.736 156.835H191.521C191.925 156.835 192.253 156.507 192.253 156.103C192.253 155.699 191.925 155.371 191.521 155.371Z" fill="#FCE1E9"/>
<path d="M152.877 29.8081L101.239 64.0924C99.827 65.0302 99.7772 67.0861 101.142 68.0904L172.922 120.938C173.779 121.568 174.945 121.571 175.805 120.946L228.63 82.5185C230.003 81.5195 229.961 79.4583 228.549 78.5156L155.582 29.8113C154.763 29.2654 153.697 29.2638 152.877 29.8081Z" fill="#8798D1"/>
<path d="M152.578 28.1259L100.94 62.4103C99.5282 63.3476 99.4783 65.4034 100.843 66.4083L172.624 119.255C173.48 119.886 174.646 119.889 175.506 119.264L228.331 80.8364C229.704 79.8374 229.662 77.7762 228.25 76.8335L155.283 28.1292C154.464 27.5833 153.398 27.5817 152.578 28.1259Z" fill="url(#paint3_linear_201_2320)"/>
<path d="M168.431 103.565L116.544 64.6495C116.001 64.2425 116.011 63.4253 116.562 63.0306C116.916 62.7781 117.393 62.7824 117.742 63.0403L169.91 101.579C170.6 102.089 170.575 103.129 169.861 103.605C169.424 103.896 168.851 103.88 168.431 103.565Z" fill="white" fill-opacity="0.2"/>
<path d="M149.16 80.6358L122.411 60.7452C121.864 60.3387 121.872 59.5178 122.426 59.1221C122.778 58.8717 123.249 58.8727 123.598 59.1253L150.615 78.6507C151.311 79.1531 151.292 80.1961 150.577 80.6717C150.145 80.9602 149.577 80.9457 149.16 80.6358Z" fill="white" fill-opacity="0.2"/>
<path d="M157.854 50.0138L146.549 41.9115C145.894 41.4423 145.019 41.4235 144.345 41.8638L135.84 47.4179C134.706 48.159 134.652 49.8014 135.736 50.6144L147.021 59.0775C147.694 59.5826 148.614 59.5993 149.305 59.1199L157.83 53.2043C158.939 52.4348 158.951 50.7999 157.854 50.0138Z" fill="#8798D1"/>
<path d="M144.422 42.6789L136.695 47.8657C135.854 48.4298 135.827 49.6567 136.64 50.2584L147.235 58.0968C147.727 58.4609 148.394 58.4808 148.907 58.1456L156.851 52.9523C157.71 52.3909 157.74 51.1431 156.909 50.5415L146.097 42.7084C145.6 42.3486 144.932 42.3368 144.422 42.6789Z" fill="#FFCBDA"/>
<path d="M139.98 45.4281L153.342 55.3841M146.383 42.939L143.32 45.1514L153.342 52.6188L156.682 50.4064L146.383 42.939ZM136.361 49.853L138.867 48.1939L148.61 55.3841L146.104 57.0437L136.361 49.853Z" stroke="white" stroke-opacity="0.3" stroke-width="0.910151"/>
<path d="M217.28 77.8743L205.798 70.2841C205.24 69.9157 204.513 69.9302 203.971 70.3216L196.237 75.8972C195.332 76.5487 195.349 77.9 196.269 78.5295L207.376 86.1294C207.926 86.5053 208.65 86.5042 209.197 86.1267L217.306 80.5409C218.245 79.8942 218.231 78.5027 217.28 77.8743Z" fill="url(#paint4_linear_201_2320)"/>
<path d="M236.238 96.924L245.511 100.584M85.678 50.8042L73.9648 47.8759L85.678 50.8042ZM103.979 28.5983L98.8551 21.0338L103.979 28.5983ZM141.559 10.5405L140.095 2L141.559 10.5405ZM192.559 13.4688L195.487 6.88041L192.559 13.4688ZM220.622 34.4549L227.454 28.5983L220.622 34.4549ZM238.923 62.5169L248.928 60.809L238.923 62.5169Z" stroke="#E0DEDF" stroke-width="4" stroke-linecap="round" stroke-linejoin="round"/>
<defs>
<linearGradient id="paint0_linear_201_2320" x1="151.863" y1="82.8006" x2="151.863" y2="198.779" gradientUnits="userSpaceOnUse">
<stop stop-color="#FEC6D7"/>
<stop offset="1" stop-color="#BBCAFF"/>
</linearGradient>
<linearGradient id="paint1_linear_201_2320" x1="122.666" y1="240.761" x2="93.5436" y2="273.296" gradientUnits="userSpaceOnUse">
<stop stop-color="#FFBDD1"/>
<stop offset="1" stop-color="#7795FF" stop-opacity="0.58"/>
</linearGradient>
<linearGradient id="paint2_linear_201_2320" x1="221.156" y1="241.083" x2="189.583" y2="261.146" gradientUnits="userSpaceOnUse">
<stop stop-color="#FFBDD1"/>
<stop offset="1" stop-color="#7795FF" stop-opacity="0.58"/>
</linearGradient>
<linearGradient id="paint3_linear_201_2320" x1="100.406" y1="66.1863" x2="236.606" y2="82.8091" gradientUnits="userSpaceOnUse">
<stop stop-color="#6386FF"/>
<stop offset="1" stop-color="#3C56C6"/>
</linearGradient>
<linearGradient id="paint4_linear_201_2320" x1="206.824" y1="69.6717" x2="206.824" y2="86.753" gradientUnits="userSpaceOnUse">
<stop stop-color="white"/>
<stop offset="1" stop-color="white" stop-opacity="0"/>
</linearGradient>
</defs>
</svg>
